<svg width="24" height="24" viewBox="0 0 24 24" fill="none" xmlns="http://www.w3.org/2000/svg">
<rect width="24" height="24" rx="1" fill="#F99400"/>
<path d="M12.4916 12.2047C10.7794 12.2047 9.35627 10.7971 9.35627 9.13144C9.35627 7.40822 10.7794 6 12.4922 6C14.2633 6 15.6276 7.40762 15.6276 9.13144C15.6246 9.94928 15.2936 10.7325 14.7075 11.3088C14.1214 11.8852 13.3281 12.2077 12.5019 12.2053L12.4916 12.2047V12.2047ZM12.4916 7.81022C11.7667 7.81022 11.2152 8.41323 11.2152 9.13204C11.2152 9.84965 11.7667 10.3957 12.4922 10.3957C13.2468 10.3957 13.7693 9.84965 13.7693 9.13204C13.7699 8.41263 13.2468 7.81022 12.4916 7.81022ZM13.7402 14.7619L15.5118 16.4569C15.8603 16.8295 15.8603 17.3755 15.5118 17.7205C15.1348 18.0932 14.5536 18.0932 14.2633 17.7205L12.4922 15.9967L10.7794 17.7205C10.6054 17.8927 10.3727 17.9785 10.1109 17.9785C9.90782 17.9785 9.67568 17.8921 9.47203 17.7205C9.12353 17.3755 9.12353 16.8295 9.47203 16.4563L11.2722 14.7613C10.6221 14.5707 9.99846 14.3009 9.41567 13.9579C8.97988 13.7281 8.89321 13.1539 9.12534 12.7225C9.41567 12.2917 9.93813 12.1771 10.403 12.4645C11.0325 12.8448 11.7557 13.046 12.4931 13.046C13.2306 13.046 13.9538 12.8448 14.5833 12.4645C15.0482 12.1771 15.5991 12.2917 15.8603 12.7225C16.1222 13.1539 16.0052 13.7275 15.5985 13.9579C15.0476 14.3029 14.4087 14.5615 13.7408 14.7625L13.7402 14.7619V14.7619Z" fill="white"/>
</svg>
