<svg width="16" height="16" viewBox="0 0 16 16" fill="none" xmlns="http://www.w3.org/2000/svg">
<path fill-rule="evenodd" clip-rule="evenodd" d="M0.600494 13.0858C0.209991 13.4763 0.209991 14.1095 0.600494 14.5C0.991058 14.8905 1.62418 14.8905 2.01474 14.5L7.49997 9.01475L13.7279 15.2426C14.1184 15.6332 14.7516 15.6332 15.1421 15.2426C15.5326 14.8521 15.5326 14.219 15.1421 13.8284L8.91422 7.60053L14.7426 1.77208C15.1331 1.38156 15.1331 0.748388 14.7426 0.357866C14.3521 -0.0326595 13.719 -0.0326595 13.3285 0.357866L7.49997 6.18632L2.41415 1.10051C2.02365 0.709986 1.39047 0.709986 0.999969 1.10051C0.609406 1.49103 0.609406 2.1242 0.999969 2.51472L6.08578 7.60053L0.600494 13.0858Z" fill="white"/>
</svg>
