<svg width="27" height="27" viewBox="0 0 27 27" fill="none" xmlns="http://www.w3.org/2000/svg">
<path fill-rule="evenodd" clip-rule="evenodd" d="M13.5 7.87549C12.0082 7.87549 10.5774 8.46812 9.52252 9.52301C8.46763 10.5779 7.875 12.0086 7.875 13.5005C7.875 14.9923 8.46763 16.4231 9.52252 17.478C10.5774 18.5329 12.0082 19.1255 13.5 19.1255C14.9918 19.1255 16.4226 18.5329 17.4775 17.478C18.5324 16.4231 19.125 14.9923 19.125 13.5005C19.125 12.0086 18.5324 10.5779 17.4775 9.52301C16.4226 8.46812 14.9918 7.87549 13.5 7.87549ZM10.125 13.5005C10.125 14.3956 10.4806 15.254 11.1135 15.887C11.7464 16.5199 12.6049 16.8755 13.5 16.8755C14.3951 16.8755 15.2536 16.5199 15.8865 15.887C16.5194 15.254 16.875 14.3956 16.875 13.5005C16.875 12.6054 16.5194 11.7469 15.8865 11.114C15.2536 10.4811 14.3951 10.1255 13.5 10.1255C12.6049 10.1255 11.7464 10.4811 11.1135 11.114C10.4806 11.7469 10.125 12.6054 10.125 13.5005Z" fill="white"/>
<path d="M20.25 5.62549C19.9516 5.62549 19.6655 5.74401 19.4545 5.95499C19.2435 6.16597 19.125 6.45212 19.125 6.75049C19.125 7.04886 19.2435 7.335 19.4545 7.54598C19.6655 7.75696 19.9516 7.87549 20.25 7.87549C20.5484 7.87549 20.8345 7.75696 21.0455 7.54598C21.2565 7.335 21.375 7.04886 21.375 6.75049C21.375 6.45212 21.2565 6.16597 21.0455 5.95499C20.8345 5.74401 20.5484 5.62549 20.25 5.62549Z" fill="white"/>
<path fill-rule="evenodd" clip-rule="evenodd" d="M5.625 1.12549C4.43153 1.12549 3.28693 1.59959 2.44302 2.44351C1.59911 3.28742 1.125 4.43201 1.125 5.62549V21.3755C1.125 22.569 1.59911 23.7136 2.44302 24.5575C3.28693 25.4014 4.43153 25.8755 5.625 25.8755H21.375C22.5685 25.8755 23.7131 25.4014 24.557 24.5575C25.4009 23.7136 25.875 22.569 25.875 21.3755V5.62549C25.875 4.43201 25.4009 3.28742 24.557 2.44351C23.7131 1.59959 22.5685 1.12549 21.375 1.12549H5.625ZM21.375 3.37549H5.625C5.02826 3.37549 4.45597 3.61254 4.03401 4.0345C3.61205 4.45645 3.375 5.02875 3.375 5.62549V21.3755C3.375 21.9722 3.61205 22.5445 4.03401 22.9665C4.45597 23.3884 5.02826 23.6255 5.625 23.6255H21.375C21.9717 23.6255 22.544 23.3884 22.966 22.9665C23.3879 22.5445 23.625 21.9722 23.625 21.3755V5.62549C23.625 5.02875 23.3879 4.45645 22.966 4.0345C22.544 3.61254 21.9717 3.37549 21.375 3.37549Z" fill="white"/>
</svg>
