<svg width="40" height="40" viewBox="0 0 40 40" fill="none" xmlns="http://www.w3.org/2000/svg">
<path d="M6.25 7.50049C4.19375 7.50049 2.5 9.19424 2.5 11.2505V28.7505C2.5 30.8067 4.19375 32.5005 6.25 32.5005H33.75C35.8063 32.5005 37.5 30.8067 37.5 28.7505V11.2505C37.5 9.19424 35.8063 7.50049 33.75 7.50049H6.25ZM6.25 10.0005H33.75C34.4562 10.0005 35 10.5442 35 11.2505V28.7505C35 29.4567 34.4562 30.0005 33.75 30.0005H6.25C5.54375 30.0005 5 29.4567 5 28.7505V11.2505C5 10.5442 5.54375 10.0005 6.25 10.0005ZM15 11.2505C10.1825 11.2505 6.25 15.183 6.25 20.0005C6.25 24.818 10.1825 28.7505 15 28.7505C16.7878 28.7572 18.5341 28.2115 20 27.188C21.466 28.2112 23.2122 28.7569 25 28.7505C29.8175 28.7505 33.75 24.818 33.75 20.0005C33.75 15.183 29.8175 11.2505 25 11.2505C23.14 11.2505 21.4125 11.823 20 12.813C18.5341 11.7895 16.7878 11.2438 15 11.2505ZM15 13.7505C16.6025 13.7505 18.0375 14.3705 19.1413 15.3505C18.6214 15.9954 18.2117 16.7219 17.9288 17.5005H20.7038C20.8787 17.898 21.0438 18.313 21.1325 18.7505H17.6175C17.5428 19.163 17.5035 19.5812 17.5 20.0005C17.5 20.428 17.55 20.843 17.6175 21.2505H21.1325C21.045 21.688 20.8775 22.103 20.7038 22.5005H17.9288C18.21 23.288 18.6287 24.0067 19.1413 24.6505C18.0375 25.6292 16.6038 26.2505 15 26.2505C11.5337 26.2505 8.75 23.4667 8.75 20.0005C8.75 16.5342 11.5337 13.7505 15 13.7505ZM25 13.7505C28.4675 13.7505 31.25 16.533 31.25 20.0005C31.25 23.468 28.4675 26.2505 25 26.2505C23.9005 26.246 22.822 25.9492 21.875 25.3905C23.0912 23.8574 23.7521 21.9574 23.75 20.0005C23.75 17.963 23.05 16.1005 21.875 14.6092C22.8221 14.051 23.9006 13.7546 25 13.7505Z" fill="white"/>
</svg>
