<svg width="40" height="40" viewBox="0 0 40 40" fill="none" xmlns="http://www.w3.org/2000/svg">
<path d="M6.25 7.50049C4.19375 7.50049 2.5 9.19424 2.5 11.2505V28.7505C2.5 30.8067 4.19375 32.5005 6.25 32.5005H33.75C35.8063 32.5005 37.5 30.8067 37.5 28.7505V11.2505C37.5 9.19424 35.8063 7.50049 33.75 7.50049H6.25ZM6.25 10.0005H33.75C34.4575 10.0005 35 10.543 35 11.2505V28.7505C35 29.458 34.4575 30.0005 33.75 30.0005H6.25C5.5425 30.0005 5 29.458 5 28.7505V11.2505C5 10.543 5.5425 10.0005 6.25 10.0005ZM24.2575 15.4692C21.85 15.4692 20.5863 16.6567 20.5863 18.1642C20.5863 20.8892 23.7887 20.5142 23.7887 21.9142C23.7887 22.1542 23.5887 22.6955 22.2663 22.6955C20.9412 22.6955 20.0788 22.2267 20.0788 22.2267L19.6875 24.0242C19.6875 24.0242 20.5075 24.5317 22.1488 24.5317C23.7887 24.5317 26.0938 23.2717 26.0938 21.4455C26.0938 19.248 22.89 19.1017 22.89 18.1255C22.89 17.628 23.315 17.2267 24.4525 17.2267C25.195 17.2267 26.015 17.813 26.015 17.813L26.4062 15.8992C26.4062 15.8992 25.3175 15.4692 24.2575 15.4692ZM13.985 15.6255L11.875 21.798C11.875 21.798 11.7675 21.2655 11.7188 20.938C10.5275 18.263 8.59375 17.2655 8.59375 17.2655L10.43 24.258H12.93L16.445 15.6255H13.985ZM17.3438 15.6255L15.9762 24.258H18.2812L19.6488 15.6255H17.3438ZM29.7663 15.6255L26.0163 24.258H28.2812L28.75 23.048H31.6413L31.875 24.258H33.945L32.1875 15.6255H29.7663ZM6.05375 15.6642C6.05375 15.6642 10.5513 17.0417 11.6012 20.4305L10.82 16.5242C10.82 16.5242 10.4788 15.6642 9.57 15.6642H6.05375ZM30.625 18.1255L31.2887 21.368H29.4137L30.625 18.1255Z" fill="white"/>
</svg>
