<svg width="36" height="36" viewBox="0 0 36 36" fill="none" xmlns="http://www.w3.org/2000/svg">
<path d="M10.2172 5.62549C9.00077 5.63023 7.83546 6.11558 6.97528 6.97576C6.11509 7.83595 5.62974 9.00126 5.625 10.2177V25.7832C5.62974 26.9997 6.11509 28.165 6.97528 29.0252C7.83546 29.8854 9.00077 30.3707 10.2172 30.3755H25.7827C26.9992 30.3707 28.1645 29.8854 29.0247 29.0252C29.8849 28.165 30.3703 26.9997 30.375 25.7832V10.2177C30.3703 9.00126 29.8849 7.83595 29.0247 6.97576C28.1645 6.11558 26.9992 5.63023 25.7827 5.62549H10.2172ZM10.2172 7.87549H25.7827C27.0877 7.87549 28.125 8.91274 28.125 10.2177V25.7832C28.125 27.0882 27.0877 28.1255 25.7827 28.1255H10.2172C9.90912 28.1274 9.60367 28.0682 9.31862 27.9512C9.03356 27.8341 8.77459 27.6617 8.5567 27.4438C8.33881 27.2259 8.16636 26.9669 8.04934 26.6819C7.93232 26.3968 7.87306 26.0914 7.875 25.7832V10.2177C7.875 8.91274 8.91225 7.87549 10.2172 7.87549ZM17.6839 13.7592C16.857 13.7514 16.1539 13.7592 15.759 13.9527C15.4946 14.081 15.2933 14.3701 15.4159 14.3836C15.57 14.4061 15.9165 14.4804 16.1021 14.7312C16.3384 15.0519 16.3305 15.7775 16.3305 15.7775C16.3305 15.7775 16.4621 17.7721 16.0087 18.023C15.6971 18.194 15.2708 17.8464 14.3482 16.2601C13.878 15.4434 13.5225 14.5422 13.5225 14.5422C13.5225 14.5422 13.455 14.3746 13.3335 14.2869C13.1839 14.1777 12.9769 14.1417 12.9769 14.1417L10.7752 14.1552C10.7752 14.1552 10.4456 14.1687 10.3275 14.3094C10.2173 14.441 10.3185 14.6997 10.3185 14.6997C10.3185 14.6997 12.0409 18.7295 13.9916 20.7601C15.7804 22.6242 17.811 22.5005 17.811 22.5005H18.7335C18.7335 22.5005 19.0103 22.4701 19.1509 22.3205C19.2836 22.1799 19.2791 21.9155 19.2791 21.9155C19.2791 21.9155 19.2611 20.6814 19.8326 20.4969C20.3996 20.3202 21.1196 21.6916 21.8891 22.2192C22.4741 22.6186 22.9174 22.5309 22.9174 22.5309L24.975 22.5005C24.975 22.5005 26.0471 22.4341 25.5375 21.5859C25.4981 21.5206 25.2428 20.9626 24.0131 19.8196C22.7205 18.6249 22.8926 18.8184 24.4474 16.7484C25.3924 15.4872 25.7704 14.7177 25.6511 14.3836C25.5386 14.072 24.8434 14.1552 24.8434 14.1552L22.527 14.1687C22.527 14.1687 22.356 14.1462 22.2289 14.2216C22.1415 14.2865 22.0718 14.3724 22.0264 14.4714C22.0264 14.4714 21.6574 15.4467 21.1691 16.2781C20.1409 18.0264 19.7235 18.1231 19.557 18.014C19.1655 17.7586 19.2622 16.9936 19.2622 16.4536C19.2622 14.7526 19.521 14.0495 18.7616 13.8661C18.5107 13.8042 18.3263 13.7649 17.685 13.7592H17.6839Z" fill="white"/>
</svg>
