<?xml version="1.0" encoding="utf-8"?>
<!-- Generator: Adobe Illustrator 19.2.0, SVG Export Plug-In . SVG Version: 6.00 Build 0)  -->
<svg version="1.1" id="Слой_1" xmlns="http://www.w3.org/2000/svg" xmlns:xlink="http://www.w3.org/1999/xlink" x="0px" y="0px"
	 viewBox="0 0 200 80" style="enable-background:new 0 0 200 80;" xml:space="preserve">
<style type="text/css">
	.st0{fill:#FFFFFF;}
	.st1{fill:none;stroke:#FFFFFF;stroke-miterlimit:10;}
</style>
<g>
	<g>
		<path class="st0" d="M27.6,70.4c-0.7,0-1.3,0-2.1,0c0-0.6,0-20.6,0-21.1c0-8,0.1-15.9-0.1-24c0-2.1,0.7-3.3,2.1-4.5
			c4.3-3.3,8.5-6.9,12.5-10.3c0.4-0.3,0.7-0.4,1.3-0.9c0,13.7,0,46.9,0,60.6c-0.6,0-1.2,0-1.9,0c0-12.2,0-43.9,0-56.4
			c-1.8,1.5-3.3,2.7-4.9,4c-1.9,1.6-4,3.4-6,5.1c-0.6,0.4-0.9,1-0.9,1.8c0,8.2,0,16.4,0,24.6C27.6,49.7,27.6,69.8,27.6,70.4z"/>
		<path class="st0" d="M46.1,70.4c-0.7,0-1.3,0-2.1,0c0-13.4,0-46.5,0-59.9c1.5,0.7,2.1,1.6,2.1,3.3c-0.1,11.8,0,23.7,0,35.4
			C46.1,49.7,46.1,69.8,46.1,70.4z"/>
		<path class="st0" d="M48.4,14.1c1.9,0.7,1.9,2.2,1.9,3.9c0,10.4,0,20.9,0,31.3c0,0.4,0,20.6,0,21c-0.7,0-1.2,0-1.9,0
			C48.4,58.2,48.4,26.3,48.4,14.1z"/>
		<path class="st0" d="M54.7,70.4c-0.7,0-1.3,0-1.9,0c0-11,0-41.6,0-52.9c0.9,0.9,1.9,1.3,1.9,3c-0.1,9.5,0,19.2,0,28.7
			C54.7,49.7,54.7,69.8,54.7,70.4z"/>
		<path class="st0" d="M72.1,13h7v12.2h-2.2V14.7h-2.7v10.7H72L72.1,13L72.1,13z"/>
		<path class="st0" d="M81.7,24.5c-0.6-0.7-0.7-1.6-0.7-3v-4.6c0-1.3,0.3-2.2,0.7-3c0.6-0.6,1.5-1,2.7-1c1.2,0,2.2,0.3,2.7,1
			c0.6,0.6,0.7,1.6,0.7,3v4.6c0,1.3-0.3,2.2-0.9,3c-0.6,0.7-1.5,1-2.7,1S82.3,25.1,81.7,24.5z M85.4,23.3c0.1-0.3,0.3-0.7,0.3-1.3
			v-5.7c0-0.6-0.1-1-0.3-1.3c-0.1-0.3-0.4-0.4-1-0.4c-0.4,0-0.9,0.1-1,0.4c-0.1,0.3-0.3,0.7-0.3,1.3V22c0,0.6,0.1,1,0.3,1.3
			c0.1,0.3,0.4,0.4,1,0.4C84.9,23.9,85.2,23.8,85.4,23.3z"/>
		<path class="st0" d="M90.7,14.7h-1.9V13h6.1v1.6H93v10.6h-2.2V14.7z"/>
		<path class="st0" d="M96.7,24.5c-0.6-0.7-0.7-1.6-0.7-3v-4.6c0-1.3,0.3-2.2,0.7-3c0.6-0.6,1.5-1,2.7-1c1.2,0,2.2,0.3,2.7,1
			c0.6,0.6,0.9,1.6,0.9,3v4.6c0,1.3-0.3,2.2-0.9,3s-1.5,1-2.7,1C98.2,25.6,97.3,25.1,96.7,24.5z M100.4,23.3
			c0.1-0.3,0.3-0.7,0.3-1.3v-5.7c0-0.6-0.1-1-0.3-1.3c-0.1-0.3-0.4-0.4-1-0.4c-0.4,0-0.9,0.1-1,0.4c-0.1,0.3-0.3,0.7-0.3,1.3V22
			c0,0.6,0.1,1,0.3,1.3c0.1,0.3,0.4,0.4,1,0.4C100,23.9,100.3,23.8,100.4,23.3z"/>
		<path class="st0" d="M103.7,23.8c0.4,0,0.9-0.1,1-0.3c0.3-0.1,0.4-0.6,0.6-1.2c0.1-0.6,0.3-1.6,0.3-3.3l0.4-6h6v12.2h-2.2V14.7
			H108l-0.3,4.6c-0.1,1.6-0.3,2.8-0.4,3.6c-0.1,0.7-0.4,1.3-0.9,1.8s-1.2,0.6-2.2,0.6c-0.3,0-0.4,0-0.6,0L103.7,23.8L103.7,23.8z"/>
		<path class="st0" d="M114.6,24.5c-0.6-0.7-0.7-1.6-0.7-3v-4.6c0-1.3,0.3-2.2,0.7-3c0.6-0.6,1.5-1,2.7-1s2.2,0.3,2.7,1
			c0.7,0.6,0.9,1.6,0.9,3v4.6c0,1.3-0.3,2.2-0.9,3s-1.5,1-2.7,1C116.1,25.6,115.2,25.1,114.6,24.5z M118.3,23.3
			c0.1-0.3,0.3-0.7,0.3-1.3v-5.7c0-0.6-0.1-1-0.3-1.3c-0.1-0.3-0.4-0.4-0.9-0.4c-0.4,0-0.9,0.1-1,0.4c-0.1,0.3-0.3,0.7-0.3,1.3V22
			c0,0.6,0.1,1,0.3,1.3s0.4,0.4,1,0.4C117.8,23.9,118.1,23.8,118.3,23.3z"/>
		<path class="st0" d="M127.2,20c-0.6,0.1-1.2,0.1-1.6,0.1c-1,0-1.8-0.3-2.4-0.7c-0.6-0.6-0.9-1.2-0.9-2.2V13h2.2v4.2
			c0,0.4,0.1,0.9,0.3,1.2c0.3,0.3,0.6,0.3,1.2,0.3c0.3,0,0.7,0,1-0.1V13h2.2v12.2h-2.2V20H127.2z"/>
		<path class="st0" d="M131.4,13h2.2v5.1h2.5V13h2.2v12.2h-2.2v-5.5h-2.5v5.5h-2.2V13z"/>
		<path class="st0" d="M140.2,13h2.2v5.2h0.6c1.3,0,2.2,0.3,2.8,0.7c0.6,0.6,0.9,1.5,0.9,2.7c0,1.3-0.3,2.2-0.9,2.8s-1.6,0.7-3,0.7
			h-2.7V13L140.2,13z M143,23.8c0.6,0,1-0.1,1.3-0.4c0.3-0.3,0.3-0.7,0.3-1.5s-0.1-1.2-0.4-1.5c-0.3-0.3-0.7-0.4-1.5-0.4h-0.4v4h0.7
			V23.8z M147.9,13h2.2v12.2h-2.2V13z"/>
		<path class="st0" d="M152.1,13h1.8v7.7l3.4-7.7h1.5v12.2h-1.9v-7.7l-3.4,7.9H152V13H152.1z M154,11.6c-0.4-0.4-0.6-0.9-0.6-1.6
			h1.2c0,0.4,0.1,0.6,0.3,0.9c0.1,0.1,0.4,0.3,0.7,0.3s0.6-0.1,0.7-0.3c0.1-0.1,0.3-0.4,0.3-0.9h1.2c0,0.7-0.1,1.2-0.6,1.6
			s-0.9,0.6-1.6,0.6C154.9,12,154.3,11.9,154,11.6z"/>
		<path class="st0" d="M72.3,32.4h4.3c2.5,0,3.7,1.3,3.7,4.2c0,2.7-1.3,4-3.9,4H75v6.6h-2.7C72.3,47.1,72.3,32.4,72.3,32.4z
			 M76,38.8c0.7,0,1.2-0.1,1.5-0.4c0.3-0.3,0.4-0.9,0.4-1.6c0-0.6,0-1-0.1-1.3c-0.1-0.3-0.3-0.6-0.6-0.7s-0.6-0.3-1.2-0.3h-1v4.5H76
			L76,38.8z"/>
		<path class="st0" d="M81.8,32.4h3.6c1.5,0,2.7,0.3,3.4,0.9c0.7,0.6,1.2,1.6,1.2,3c0,0.9-0.1,1.6-0.4,2.2s-0.7,1-1.5,1.3l2.1,7.3
			h-2.7l-1.8-6.7h-1.2v6.7h-2.7L81.8,32.4L81.8,32.4z M85.4,38.8c0.7,0,1.3-0.1,1.6-0.6c0.3-0.3,0.4-0.9,0.4-1.8
			c0-0.7-0.1-1.3-0.4-1.6s-0.7-0.6-1.5-0.6h-1v4.5h0.9V38.8z"/>
		<path class="st0" d="M92.7,46.1c-0.6-0.7-1-2.1-1-3.6V37c0-1.6,0.3-2.7,1-3.6c0.6-0.7,1.8-1.2,3.3-1.2s2.5,0.4,3.3,1.2
			c0.6,0.7,1,1.9,1,3.6v5.5c0,1.6-0.3,2.7-1,3.6c-0.6,0.9-1.8,1.2-3.3,1.2C94.5,47.4,93.4,47,92.7,46.1z M97.3,44.8
			c0.1-0.4,0.3-0.9,0.3-1.6v-6.9c0-0.7-0.1-1.2-0.3-1.6c-0.1-0.3-0.6-0.6-1.2-0.6s-1,0.1-1.2,0.6s-0.3,0.9-0.3,1.6v6.9
			c0,0.7,0.1,1.2,0.3,1.6c0.1,0.4,0.6,0.6,1.2,0.6S97,45.2,97.3,44.8z"/>
		<path class="st0" d="M106.7,32.4h2.2v9.2l4-9.2h1.8v14.7h-2.2v-9.4l-4,9.4h-1.8V32.4L106.7,32.4z"/>
		<path class="st0" d="M117.1,32.4h2.7v6.1h3v-6.1h2.7v14.7h-2.7v-6.7h-3v6.7h-2.7V32.4z"/>
		<path class="st0" d="M129.2,34.5h-2.4v-2.1h7.3v1.9h-2.2v12.8h-2.7V34.5L129.2,34.5z"/>
		<path class="st0" d="M135.4,32.4h6.3v1.9h-3.6v4.3h2.8v1.9h-2.8v4.9h3.6v1.8h-6.3V32.4z"/>
		<path class="st0" d="M143.3,32.4h4.3c2.5,0,3.7,1.3,3.7,4.2c0,2.7-1.3,4-3.9,4H146v6.6h-2.7V32.4z M147,38.8
			c0.7,0,1.2-0.1,1.5-0.4c0.3-0.3,0.4-0.9,0.4-1.6c0-0.6,0-1-0.1-1.3c-0.1-0.3-0.3-0.6-0.6-0.7c-0.3-0.1-0.6-0.3-1.2-0.3h-1v4.5H147
			L147,38.8z"/>
		<path class="st0" d="M152.8,32.4h2.7v6.3h0.6c1.5,0,2.7,0.3,3.4,1c0.7,0.6,1,1.8,1,3.3c0,1.6-0.4,2.7-1.2,3.3
			c-0.7,0.6-1.9,0.9-3.4,0.9h-3.3V32.4H152.8z M156.1,45.4c0.7,0,1.3-0.1,1.6-0.6c0.3-0.3,0.4-1,0.4-1.9s-0.1-1.5-0.4-1.8
			c-0.3-0.4-0.9-0.6-1.8-0.6h-0.4v4.9H156.1L156.1,45.4z"/>
		<path class="st0" d="M162.4,32.4h6.3v1.9h-3.6v4.3h2.7v1.9h-2.7v4.9h3.6v1.8h-6.3V32.4z"/>
		<path class="st0" d="M170.3,32.4h4.3c2.5,0,3.7,1.3,3.7,4.2c0,2.7-1.3,4-3.9,4h-1.5v6.6h-2.7V32.4z M174,38.8
			c0.7,0,1.2-0.1,1.5-0.4c0.3-0.3,0.4-0.9,0.4-1.6c0-0.6,0-1-0.1-1.3c-0.1-0.3-0.3-0.6-0.6-0.7c-0.3-0.1-0.6-0.3-1.2-0.3h-1v4.5H174
			L174,38.8z"/>
	</g>
	<g>
		<path class="st0" d="M82.9,66h-1.1v-3.4h-2.9V66h-1.1v-7.7h1.1v3.5h2.9v-3.5h1.1V66z"/>
		<path class="st0" d="M88,64.1h-2.4L85,66h-1.1l2.4-7.7h1l2.3,7.7h-1.1L88,64.1z M85.8,63.2h2l-1-3.3h0L85.8,63.2z"/>
		<path class="st0" d="M94.2,59.2h-2V66h-1.1v-6.8h-2v-0.8h5V59.2z"/>
		<path class="st0" d="M95.8,66h-1.1l1.5-3.3c-0.4-0.2-0.7-0.5-0.9-0.8c-0.2-0.3-0.3-0.7-0.3-1.2c0-0.7,0.2-1.3,0.6-1.7
			c0.4-0.4,1-0.6,1.7-0.6h2.2V66h-1.1v-3h-1.3L95.8,66z M98.3,59.2h-1.1c-0.4,0-0.7,0.1-0.9,0.4c-0.2,0.3-0.3,0.6-0.3,1.1
			c0,0.5,0.1,0.8,0.3,1.1c0.2,0.3,0.5,0.4,0.9,0.4h1.1V59.2z"/>
		<path class="st0" d="M105.8,62.6H105V66H104v-3.5h-0.7l-1.7,3.5h-1.3l2.2-4.1l-2-3.6h1.3l1.6,3.3h0.7v-3.3h1.1v3.3h0.7l1.6-3.3
			h1.3l-2,3.5l2.1,4.1h-1.3L105.8,62.6z"/>
		<path class="st0" d="M114.7,66h-1.1v-3.4h-2.9V66h-1.1v-7.7h1.1v3.5h2.9v-3.5h1.1V66z"/>
		<path class="st0" d="M117.2,61.5h1.3c0.7,0,1.3,0.2,1.7,0.6c0.4,0.4,0.6,1,0.6,1.6c0,0.7-0.2,1.2-0.6,1.7c-0.4,0.4-1,0.6-1.7,0.6
			h-2.4v-7.7h1.1V61.5z M117.2,62.3v2.9h1.3c0.4,0,0.7-0.1,0.9-0.4c0.2-0.3,0.3-0.6,0.3-1.1c0-0.4-0.1-0.8-0.3-1
			c-0.2-0.3-0.5-0.4-0.9-0.4H117.2z M122.7,66h-1.1v-7.7h1.1V66z"/>
		<path class="st0" d="M128.1,62.5h-2.8v2.8h3.3V66h-4.4v-7.7h4.3v0.8h-3.3v2.5h2.8V62.5z"/>
		<path class="st0" d="M136.9,66h-1.1v-6.8h-2.9V66h-1.1v-7.7h5.1V66z"/>
		<path class="st0" d="M143.3,63.3c0,0.9-0.2,1.6-0.7,2.1c-0.5,0.5-1.1,0.8-1.9,0.8c-0.8,0-1.4-0.3-1.9-0.8
			c-0.5-0.5-0.7-1.2-0.7-2.1v-2.1c0-0.9,0.2-1.6,0.7-2.1c0.5-0.5,1.1-0.8,1.9-0.8c0.8,0,1.4,0.3,1.9,0.8c0.5,0.5,0.7,1.2,0.7,2.1
			V63.3z M142.2,61.1c0-0.7-0.1-1.2-0.4-1.5c-0.3-0.3-0.6-0.5-1.1-0.5c-0.5,0-0.8,0.2-1.1,0.5c-0.3,0.3-0.4,0.9-0.4,1.5v2.1
			c0,0.7,0.1,1.2,0.4,1.5c0.3,0.3,0.6,0.5,1.1,0.5c0.5,0,0.9-0.2,1.1-0.5c0.3-0.3,0.4-0.9,0.4-1.5V61.1z"/>
		<path class="st0" d="M148.8,59.2h-2V66h-1.1v-6.8h-2v-0.8h5V59.2z"/>
		<path class="st0" d="M154.5,63.3c0,0.9-0.2,1.6-0.7,2.1c-0.5,0.5-1.1,0.8-1.9,0.8c-0.8,0-1.4-0.3-1.9-0.8
			c-0.5-0.5-0.7-1.2-0.7-2.1v-2.1c0-0.9,0.2-1.6,0.7-2.1c0.5-0.5,1.1-0.8,1.9-0.8c0.8,0,1.4,0.3,1.9,0.8c0.5,0.5,0.7,1.2,0.7,2.1
			V63.3z M153.4,61.1c0-0.7-0.1-1.2-0.4-1.5c-0.3-0.3-0.6-0.5-1.1-0.5c-0.5,0-0.8,0.2-1.1,0.5c-0.3,0.3-0.4,0.9-0.4,1.5v2.1
			c0,0.7,0.1,1.2,0.4,1.5c0.3,0.3,0.6,0.5,1.1,0.5c0.5,0,0.9-0.2,1.1-0.5c0.3-0.3,0.4-0.9,0.4-1.5V61.1z"/>
		<path class="st0" d="M160.6,58.4V66h-1.1v-6.8h-2.1l0,2.7c0,1.5-0.2,2.5-0.5,3.2c-0.3,0.7-0.9,1-1.6,1H155v-0.8h0.2
			c0.4,0,0.7-0.3,0.9-0.7c0.2-0.5,0.2-1.3,0.2-2.6l0-3.5H160.6z"/>
		<path class="st0" d="M163.9,62.6h-0.7V66h-1.1v-7.7h1.1v3.4h0.6l2-3.4h1.3l-2.4,3.6l2.6,4h-1.3L163.9,62.6z"/>
		<path class="st0" d="M172,58.4h1.1V66H172v-5.6l0,0L169,66H168v-7.7h1.1V64l0,0L172,58.4z"/>
	</g>
	<rect x="72" y="54.2" class="st1" width="105.6" height="16.1"/>
</g>
</svg>
