<svg width="25" height="25" viewBox="0 0 25 25" fill="none" xmlns="http://www.w3.org/2000/svg">
<rect x="1" y="1.00049" width="23" height="23" stroke="white" stroke-width="2"/>
<path d="M13.0806 12.3254C11.0795 12.3254 9.41636 10.6636 9.41636 8.69728C9.41636 6.66295 11.0795 5.00049 13.0813 5.00049C15.151 5.00049 16.7455 6.66224 16.7455 8.69728C16.7419 9.66277 16.3552 10.5874 15.6702 11.2678C14.9852 11.9483 14.0581 12.3289 13.0926 12.3261L13.0806 12.3254ZM13.0806 7.13753C12.2334 7.13753 11.5888 7.8494 11.5888 8.69799C11.5888 9.54515 12.2334 10.1897 13.0813 10.1897C13.9632 10.1897 14.5737 9.54515 14.5737 8.69799C14.5744 7.8487 13.9632 7.13753 13.0806 7.13753ZM14.5397 15.3443L16.6102 17.3453C17.0175 17.7852 17.0175 18.4298 16.6102 18.8371C16.1696 19.2769 15.4903 19.2769 15.151 18.8371L13.0813 16.802L11.0795 18.8371C10.8762 19.0404 10.6042 19.1417 10.2982 19.1417C10.0609 19.1417 9.78965 19.0397 9.55165 18.8371C9.14436 18.4298 9.14436 17.7852 9.55165 17.3446L11.6554 15.3436C10.8957 15.1186 10.1669 14.8 9.48578 14.3951C8.97649 14.1238 8.8752 13.4459 9.14649 12.9367C9.48578 12.4281 10.0964 12.2928 10.6397 12.6321C11.3753 13.081 12.2205 13.3185 13.0823 13.3185C13.9442 13.3185 14.7894 13.081 15.525 12.6321C16.0683 12.2928 16.7122 12.4281 17.0175 12.9367C17.3235 13.4459 17.1868 14.1231 16.7115 14.3951C16.0676 14.8024 15.321 15.1077 14.5404 15.345L14.5397 15.3443Z" fill="white"/>
</svg>
