<svg width="32" height="21" viewBox="0 0 32 21" fill="none" xmlns="http://www.w3.org/2000/svg">
<path fill-rule="evenodd" clip-rule="evenodd" d="M5.3743 18.7634C5.14236 19.3974 4.85684 20.0138 4.42862 21C11.6375 18.5873 15.3489 13.5683 14.9741 7.14038C14.7779 3.58301 12.1728 0.553988 8.88955 0.0961021C5.03531 -0.449827 1.73428 1.36408 0.502958 4.6749C-0.746065 8.02091 0.342436 12.0714 3.64346 13.5331C6.69473 14.8715 6.1951 16.5797 5.3743 18.7634ZM22.3743 18.7634C22.1424 19.3974 21.8568 20.0138 21.4286 21C28.6375 18.5873 32.3489 13.5683 31.9741 7.14038C31.7779 3.58301 29.1728 0.553988 25.8896 0.0961021C22.0353 -0.449827 18.7343 1.36408 17.503 4.6749C16.2539 8.02091 17.3424 12.0714 20.6435 13.5331C23.6947 14.8715 23.1951 16.5797 22.3743 18.7634Z" fill="black" fill-opacity="0.2"/>
</svg>
