<svg width="20" height="29" viewBox="0 0 20 29" fill="none" xmlns="http://www.w3.org/2000/svg">
<path d="M0 11.2778H1.53846V0H13.0769C16.9231 0 20 3.22222 20 7.25C20 11.2778 16.9231 14.5 13.0769 14.5H4.61538V17.7222H13.8462V20.9444H4.61538V29H1.53846V20.9444H0V17.7222H1.53846V14.5H0V11.2778ZM13.0769 3.22222H4.61538V11.2778H13.0769C14.097 11.2778 15.0753 10.8534 15.7966 10.0981C16.5179 9.34271 16.9231 8.31823 16.9231 7.25C16.9231 6.18177 16.5179 5.15729 15.7966 4.40193C15.0753 3.64658 14.097 3.22222 13.0769 3.22222Z" fill="white"/>
</svg>
