<svg width="133" height="25" viewBox="0 0 133 25" fill="none" xmlns="http://www.w3.org/2000/svg">
<path d="M0.115653 11.0891C1.83234 12.083 3.63937 12.8736 5.17535 14.0256C7.09533 15.4712 8.6539 15.3357 10.6642 14.0707C14.9108 11.3828 19.338 8.98845 23.6975 6.48118C23.9911 6.32307 24.2848 6.16495 24.5784 6.00684C26.9502 9.71126 26.7469 16.0585 22.9747 20.5083C19.3606 24.7548 12.8327 26.2456 7.68262 23.8739C2.66809 21.5699 -0.674925 15.9907 0.115653 11.0891Z" fill="white"/>
<path d="M132.278 20.5079C132.278 20.9371 132.278 21.2985 132.278 21.7503C99.1638 21.7503 66.0499 21.7503 32.8908 21.7503C32.8682 21.5244 32.823 21.3211 32.8004 21.0952C32.8004 20.9145 32.8456 20.7338 32.8682 20.4854C65.9821 20.5079 99.0509 20.5079 132.278 20.5079Z" fill="white"/>
<path d="M114.23 10.3213C112.423 10.3213 110.774 10.3213 108.967 10.3213C109.283 12.5123 108.357 14.7486 109.622 16.8944C108.244 16.8944 106.776 16.8944 105.556 16.8944C105.692 16.0587 105.918 15.2003 105.94 14.3646C105.985 11.4733 105.985 8.58204 105.94 5.69078C105.918 4.99055 105.669 4.29032 105.511 3.54492C106.753 3.54492 108.176 3.54492 109.645 3.54492C108.289 5.32937 109.283 7.31711 108.899 9.28226C110.706 9.28226 112.378 9.28226 114.185 9.28226C113.914 7.40746 114.682 5.44231 113.575 3.59009C114.862 3.59009 116.331 3.59009 117.55 3.59009C117.392 4.3355 117.121 5.10349 117.099 5.87148C117.054 8.80791 117.054 11.7443 117.099 14.6582C117.121 15.4036 117.415 16.1264 117.573 16.917C116.353 16.917 114.908 16.917 113.417 16.917C114.908 14.8615 113.869 12.5575 114.23 10.3213Z" fill="white"/>
<path d="M45.4723 17.0073C45.6304 16.1264 45.8789 15.4036 45.8789 14.6582C45.9241 11.5636 45.9241 8.49168 45.8789 5.39713C45.8789 4.80984 45.6304 4.22256 45.4497 3.54492C48.5443 3.54492 51.8421 3.54492 55.2303 3.54492C55.2303 4.42585 55.2303 5.35196 55.2303 6.27807C55.1625 6.34583 55.0948 6.41359 55.0044 6.48136C54.7785 6.23289 54.4397 6.00701 54.3494 5.71337C54.0105 4.69691 53.3329 4.29032 52.3164 4.3355C51.571 4.35809 50.8031 4.38068 50.0576 4.3355C49.2445 4.26774 48.8831 4.56138 48.9057 5.39713C48.9508 6.30065 48.9057 7.20417 48.9057 8.15286C50.1028 8.24322 51.2096 8.31098 52.3164 8.44651C54.7108 8.69497 55.9305 9.91472 56.0209 12.0606C56.1338 14.997 55.1174 16.4426 52.6101 16.8944C52.2713 16.9622 51.9324 17.0299 51.5936 17.0299C49.4929 17.0299 47.3923 17.0073 45.4723 17.0073ZM48.9283 9.28226C48.9283 11.27 48.9057 13.3029 48.9508 15.3133C48.9508 15.5843 49.3122 15.9909 49.6059 16.0812C51.0063 16.5556 52.339 15.8102 52.7004 14.342C52.8586 13.7095 52.8811 13.0093 52.8811 12.3316C52.836 9.75661 51.6388 8.80792 48.9283 9.28226Z" fill="white"/>
<path d="M81.0709 3.54492C84.1654 3.54492 87.4181 3.54492 90.7611 3.54492C90.7611 4.47103 90.7611 5.39713 90.7611 6.32324C90.6933 6.391 90.603 6.43618 90.5352 6.50395C90.3319 6.25548 90.0157 6.02959 89.9253 5.73595C89.5865 4.74208 88.9541 4.29032 87.8924 4.3355C87.0341 4.38068 86.1532 4.26773 85.2948 4.38067C85.0012 4.42585 84.5494 4.85502 84.5042 5.14867C84.4139 6.11995 84.4591 7.09123 84.4591 8.15286C85.611 8.24322 86.7179 8.33357 87.8247 8.42392C90.3319 8.67239 91.4839 9.84696 91.5743 12.1961C91.6646 15.0196 90.6482 16.6008 88.1183 16.8266C85.724 17.0525 83.2845 16.8718 81.0935 16.8718C81.229 16.1264 81.4774 15.381 81.5 14.613C81.5452 11.6088 81.5452 8.60462 81.5 5.57784C81.5 4.94538 81.229 4.29032 81.0709 3.54492ZM84.4816 9.16932C84.4816 11.2474 84.4591 13.2352 84.5042 15.2229C84.5042 15.4939 84.7527 15.8779 85.0012 16.0135C85.7466 16.4652 87.3955 16.0812 87.8473 15.3133C88.7734 13.7095 88.8185 11.9702 88.028 10.3439C87.3503 8.96603 85.9273 9.14673 84.4816 9.16932Z" fill="white"/>
<path d="M73.5943 16.9392C72.0809 16.9392 70.6127 16.9392 69.4155 16.9392C69.551 16.1035 69.7995 15.3355 69.7995 14.5449C69.8447 11.4955 69.8447 8.44614 69.7995 5.41936C69.7995 4.83207 69.5284 4.24478 69.3477 3.52197C69.28 3.54456 69.4381 3.45421 69.5962 3.45421C71.6969 3.45421 73.7976 3.40903 75.9208 3.47679C78.0893 3.54455 79.2413 4.67395 79.4671 6.77463C79.7156 9.19155 78.6992 10.9082 76.6211 11.36C75.4691 11.6085 74.2493 11.6085 72.8489 11.744C73.0973 13.4155 72.1938 15.2451 73.5943 16.9392ZM72.9166 4.51584C72.9166 6.54875 72.9166 8.60426 72.9166 10.6372C75.4013 10.976 76.2822 10.2532 76.35 7.88144C76.35 7.61039 76.35 7.36192 76.35 7.09086C76.3274 4.85466 75.2432 3.99631 72.9166 4.51584Z" fill="white"/>
<path d="M104.449 17.0071C103.433 17.0071 102.191 17.3685 101.468 16.8942C100.813 16.465 100.677 15.1549 100.361 14.2288C99.6382 12.0829 99.6608 12.0829 97.4246 12.0829C95.3465 12.0829 95.3465 12.0829 94.7592 14.1158C94.5107 15.0419 94.3074 15.9906 94.059 16.9845C93.291 16.9845 92.5682 16.9845 91.8002 16.9845C92.9296 14.2514 94.059 11.5408 95.1884 8.80766C95.5949 7.81379 96.0241 6.79734 96.4081 5.78088C96.7017 5.01289 96.9502 4.22231 95.9563 3.58984C97.1987 3.58984 98.4184 3.58984 99.706 3.58984C101.265 7.97191 102.846 12.4443 104.449 17.0071ZM97.6956 6.18746C97.6053 6.18746 97.5149 6.18746 97.4246 6.18746C96.8825 7.81379 96.3403 9.41754 95.7756 11.089C96.9954 11.089 98.1022 11.089 99.3445 11.089C98.7573 9.41754 98.2151 7.7912 97.6956 6.18746Z" fill="white"/>
<path d="M67.2697 13.935C67.2697 14.9741 67.2697 15.9454 67.2697 16.9618C64.0396 16.9618 60.8547 16.9618 57.4439 16.9618C58.6637 16.0131 58.2797 14.816 58.3023 13.7091C58.3248 10.9986 58.3474 8.28803 58.3023 5.57748C58.2797 4.89984 58.0312 4.24479 57.8505 3.52197C60.7418 3.52197 63.8363 3.52197 66.976 3.52197C66.976 4.44808 66.976 5.37419 66.976 6.61653C66.592 6.27771 66.2306 6.11959 66.1629 5.89371C65.8015 4.69655 65.0335 4.26738 63.7911 4.31255C61.2387 4.35773 61.2387 4.31255 61.2387 6.88758C61.2387 7.67816 61.2387 8.46873 61.2387 9.48519C62.6617 9.41743 64.017 9.37226 65.4401 9.30449C65.4401 9.68849 65.4401 10.1854 65.4401 10.592C64.0848 10.5242 62.7521 10.4565 61.2613 10.3887C61.2613 12.0602 61.2161 13.6414 61.3065 15.2C61.329 15.5162 61.8937 16.0131 62.2777 16.0583C63.1587 16.1938 64.0848 16.1486 64.9657 16.0809C65.7563 16.0131 66.0725 15.4032 66.1855 14.6804C66.2984 14.1157 66.4791 13.6188 67.2697 13.935Z" fill="white"/>
<path d="M43.4394 15.2679C44.0267 15.9003 43.8234 16.2166 43.2135 16.5102C41.0225 17.4815 38.7637 17.6622 36.5275 16.8942C33.6814 15.9455 32.9811 13.5286 32.8456 10.9084C32.8004 9.91454 32.9134 8.87549 33.1167 7.88162C33.7491 4.99036 35.7369 3.34144 38.6959 3.27367C39.8479 3.25109 41.0225 3.4092 42.1744 3.47696C43.2135 3.54473 43.7556 3.99649 43.5749 5.12589C43.5071 5.55506 43.5523 6.02941 43.5523 6.91034C43.0328 6.50375 42.6036 6.34564 42.4907 6.052C41.9486 4.69672 40.9095 4.19978 39.5768 4.17719C38.199 4.1546 37.0921 4.78707 36.663 6.07458C35.7595 8.73996 35.7369 11.4957 36.7985 14.1159C37.5439 15.9455 39.6898 16.5554 42.0841 15.81C42.5133 15.6293 42.965 15.4486 43.4394 15.2679Z" fill="white"/>
<path d="M119.719 3.52197C121.006 3.52197 122.452 3.52197 123.649 3.52197C123.491 4.35773 123.243 5.17089 123.243 5.98406C123.197 8.87532 123.197 11.7666 123.243 14.6578C123.265 15.4032 123.514 16.1486 123.672 16.9392C122.475 16.9392 121.029 16.9392 119.832 16.9392C119.967 16.1261 120.193 15.3581 120.193 14.5675C120.238 11.4955 120.238 8.40097 120.193 5.32901C120.171 4.76431 119.9 4.19961 119.719 3.52197Z" fill="white"/>
<path d="M23.9459 4.78716C21.1902 6.36832 18.4571 7.94948 15.7465 9.50804C13.4425 10.8407 11.116 12.1508 8.8346 13.5061C8.20213 13.8675 7.72778 13.9127 7.09532 13.5287C5.17535 12.3767 3.23278 11.2247 1.24504 10.1631C0.318935 9.66616 0.00270247 9.14664 0.657753 8.13018C0.973985 8.28829 1.33539 8.469 1.67421 8.64971C3.50384 9.68875 5.33346 10.7278 7.1405 11.812C7.72779 12.1734 8.15696 12.1734 8.76683 11.8346C13.2167 9.23699 17.6891 6.70714 22.1163 4.10952C23.0198 3.56741 23.4942 3.70294 23.9459 4.78716Z" fill="white"/>
<path d="M132.12 17.0072C130.561 17.0072 129.138 17.0072 127.873 17.0072C126.473 15.042 125.185 13.1672 123.83 11.315C123.491 10.8406 123.468 10.547 123.807 10.0501C125.163 8.03973 126.45 5.96164 127.805 3.92872C127.941 3.72543 128.235 3.49955 128.46 3.47696C129.274 3.43179 130.087 3.45438 130.9 3.45438C129.183 5.39694 127.512 7.24916 125.682 9.30466C127.828 11.8797 129.929 14.387 132.12 17.0072Z" fill="white"/>
<path d="M22.1163 2.55101C18.2764 4.76463 14.4138 6.77495 10.7772 9.16928C8.65392 10.5697 6.98241 10.6375 5.01726 9.10152C3.84268 8.198 2.44223 7.56553 1.04178 6.75236C1.24507 6.32319 1.42577 5.9392 1.67424 5.41968C3.4361 6.43613 5.15279 7.36224 6.84688 8.40129C7.59229 8.85305 8.17957 8.92081 8.97015 8.42388C12.5842 6.27802 16.2661 4.2451 19.8575 2.09925C20.8062 1.53455 21.4387 1.60231 22.1163 2.55101Z" fill="white"/>
<path d="M19.6768 0.676029C16.5371 2.48307 13.3974 4.08682 10.4835 6.05197C8.60872 7.29431 7.14051 7.38465 5.40123 6.00679C4.54289 5.32915 3.48126 4.8548 2.53256 4.31269C2.98432 3.18329 3.5942 3.11553 4.5203 3.7254C5.60453 4.44822 6.80169 5.50985 7.95367 5.50985C9.10566 5.50985 10.2351 4.38046 11.387 3.74799C13.2393 2.68636 15.0915 1.62472 16.9437 0.56309C18.2086 -0.204901 18.2086 -0.204901 19.6768 0.676029Z" fill="white"/>
</svg>
