<svg width="24" height="24" viewBox="0 0 24 24" fill="none" xmlns="http://www.w3.org/2000/svg">
<mask id="path-1-inside-1" fill="white">
<path d="M22.6754 24.0001C23.4068 24.0001 24 23.407 24 22.6755V1.32459C24 0.592969 23.4068 0 22.6754 0H1.32459C0.592875 0 0 0.592969 0 1.32459V22.6755C0 23.407 0.592875 24.0001 1.32459 24.0001H22.6754"/>
</mask>
<path d="M22.6754 25.0001C23.9591 25.0001 25 23.9594 25 22.6755H23C23 22.8547 22.8546 23.0001 22.6754 23.0001V25.0001ZM25 22.6755V1.32459H23V22.6755H25ZM25 1.32459C25 0.040592 23.959 -1 22.6754 -1V1C22.8547 1 23 1.14535 23 1.32459H25ZM22.6754 -1H1.32459V1H22.6754V-1ZM1.32459 -1C0.0405441 -1 -1 0.0407301 -1 1.32459H1C1 1.14521 1.14521 1 1.32459 1V-1ZM-1 1.32459V22.6755H1V1.32459H-1ZM-1 22.6755C-1 23.9592 0.0404968 25.0001 1.32459 25.0001V23.0001C1.14525 23.0001 1 22.8548 1 22.6755H-1ZM1.32459 25.0001H22.6754V23.0001H1.32459V25.0001Z" fill="white" mask="url(#path-1-inside-1)"/>
<path d="M16.5596 24.0002V14.7062H19.6793L20.1463 11.0841H16.5596V8.7715C16.5596 7.72281 16.8508 7.00816 18.3547 7.00816L20.2727 7.00731V3.76778C19.9408 3.72362 18.8023 3.625 17.4778 3.625C14.7124 3.625 12.8192 5.31297 12.8192 8.41291V11.0841H9.69153V14.7062H12.8192V24.0002H16.5596" fill="white"/>
</svg>
