<svg width="24" height="24" viewBox="0 0 24 24" fill="none" xmlns="http://www.w3.org/2000/svg">
<rect width="24" height="24" rx="1" fill="#00ACEE"/>
<path d="M20 8.30116C19.4757 8.52584 18.9196 8.67322 18.3501 8.73838C18.9501 8.39148 19.3992 7.84542 19.6136 7.20202C19.0498 7.52586 18.4328 7.75386 17.7894 7.87612C17.3952 7.47033 16.8839 7.18841 16.322 7.06694C15.76 6.94546 15.1733 6.99003 14.6378 7.19487C14.1024 7.3997 13.6429 7.75535 13.3191 8.2157C12.9952 8.67604 12.8219 9.21985 12.8215 9.7766C12.8211 9.98955 12.8458 10.2019 12.895 10.4094C11.7531 10.354 10.6361 10.067 9.61633 9.56718C8.59659 9.06732 7.69695 8.36573 6.9758 7.50794C6.60848 8.11934 6.49595 8.8431 6.66111 9.53189C6.82627 10.2207 7.25671 10.8227 7.8648 11.2155C7.40835 11.202 6.96189 11.0829 6.5628 10.8683V10.9035C6.56291 11.5447 6.79244 12.1662 7.21246 12.6625C7.63247 13.1588 8.21711 13.4993 8.8672 13.6263C8.62058 13.6911 8.36607 13.7237 8.1105 13.7231C7.92896 13.7232 7.7478 13.7068 7.5694 13.6743C7.75284 14.226 8.10998 14.7085 8.59092 15.0544C9.07186 15.4002 9.65254 15.5921 10.2518 15.6032C9.04739 16.5147 7.51859 16.9276 6 16.7518C7.31324 17.568 8.84182 18.0013 10.403 17.9998C11.478 18.0068 12.5438 17.8073 13.5384 17.4127C14.533 17.0182 15.4366 16.4365 16.1968 15.7015C16.9569 14.9664 17.5585 14.0927 17.9664 13.131C18.3744 12.1693 18.5807 11.1389 18.5734 10.0994C18.5734 9.97897 18.5704 9.8594 18.5643 9.74073C19.1275 9.3471 19.6136 8.85963 20 8.30116Z" fill="white"/>
</svg>
