<svg width="24" height="24" viewBox="0 0 24 24" fill="none" xmlns="http://www.w3.org/2000/svg">
<rect x="0.5" y="0.5" width="23" height="23" rx="0.5" stroke="white"/>
<path d="M19.6561 8.60948C19.7609 8.25786 19.6561 8 19.1605 8H17.5189C17.1012 8 16.9104 8.22307 16.8056 8.46807C16.8056 8.46807 15.9709 10.5241 14.7882 11.8573C14.4064 12.2452 14.232 12.3677 14.0239 12.3677C13.9199 12.3677 13.7686 12.2452 13.7686 11.8935V8.60948C13.7686 8.18753 13.6481 8 13.3 8H10.7205C10.46 8 10.3028 8.19509 10.3028 8.38111C10.3028 8.78037 10.8942 8.87263 10.9548 9.99782V12.4387C10.9548 12.9734 10.8597 13.0709 10.6501 13.0709C10.094 13.0709 8.74056 11.0073 7.93735 8.64502C7.7809 8.18602 7.62296 8.00076 7.20376 8.00076H5.56292C5.09357 8.00076 5 8.22383 5 8.46883C5 8.90892 5.55618 11.0867 7.59077 13.967C8.94716 15.9338 10.8567 17 12.5964 17C13.6391 17 13.7679 16.7633 13.7679 16.355V14.8683C13.7679 14.395 13.8675 14.2997 14.1976 14.2997C14.4401 14.2997 14.8578 14.4237 15.8317 15.3712C16.944 16.4949 17.1282 16.9992 17.7532 16.9992H19.3941C19.8627 16.9992 20.097 16.7626 19.9622 16.2952C19.8148 15.8302 19.2833 15.1534 18.5781 14.3526C18.1949 13.8959 17.6222 13.4044 17.4478 13.1586C17.2045 12.8418 17.2749 12.7019 17.4478 12.4206C17.4486 12.4214 19.448 9.57663 19.6561 8.60948V8.60948Z" fill="white"/>
</svg>
