<svg width="32" height="32" viewBox="0 0 32 32" fill="none" xmlns="http://www.w3.org/2000/svg">
<path d="M27.5 3.50049H4.5C3.94687 3.50049 3.5 3.94736 3.5 4.50049V27.5005C3.5 28.0536 3.94687 28.5005 4.5 28.5005H27.5C28.0531 28.5005 28.5 28.0536 28.5 27.5005V4.50049C28.5 3.94736 28.0531 3.50049 27.5 3.50049ZM26.5 26.5005H20.7469V18.8192H23.9969L24.4844 15.0474H20.7469V12.638C20.7469 11.5442 21.05 10.8005 22.6156 10.8005H24.6125V7.42549C24.2656 7.37861 23.0813 7.27549 21.7 7.27549C18.8188 7.27549 16.8469 9.03486 16.8469 12.263V15.0442H13.5906V18.8161H16.85V26.5005H5.5V5.50049H26.5V26.5005Z" fill="white"/>
</svg>
