<svg width="22" height="33" viewBox="0 0 22 33" fill="none" xmlns="http://www.w3.org/2000/svg">
<path d="M21.2996 0.761108H1V32H21.2996V0.761108Z" stroke="white" stroke-miterlimit="10"/>
<path d="M19.2696 3.01663H3.02991V11.8132H19.2696V3.01663Z" stroke="white" stroke-miterlimit="10"/>
<path d="M7.31537 13.6176H3.02991V17.903H7.31537V13.6176Z" stroke="white" stroke-miterlimit="10"/>
<path d="M13.4053 13.6176H9.11987V17.903H13.4053V13.6176Z" stroke="white" stroke-miterlimit="10"/>
<path d="M19.3824 13.6176H15.0969V17.903H19.3824V13.6176Z" stroke="white" stroke-miterlimit="10"/>
<path d="M7.31537 19.5947H3.02991V23.8801H7.31537V19.5947Z" stroke="white" stroke-miterlimit="10"/>
<path d="M13.4053 19.5947H9.11987V23.8801H13.4053V19.5947Z" stroke="white" stroke-miterlimit="10"/>
<path d="M19.3824 19.5947H15.0969V29.8573H19.3824V19.5947Z" stroke="white" stroke-miterlimit="10"/>
<path d="M7.31537 25.6846H3.02991V29.9701H7.31537V25.6846Z" stroke="white" stroke-miterlimit="10"/>
<path d="M13.4053 25.6846H9.11987V29.9701H13.4053V25.6846Z" stroke="white" stroke-miterlimit="10"/>
</svg>
