<svg width="36" height="36" viewBox="0 0 36 36" fill="none" xmlns="http://www.w3.org/2000/svg">
<path d="M5.625 5.62549V30.3755H30.375V5.62549H5.625ZM7.875 7.87549H28.125V28.1255H7.875V7.87549ZM21.0263 11.9581C19.0575 11.9581 17.4172 13.7334 17.8751 15.9237C16.5914 15.8594 15.3356 15.5257 14.1894 14.9442C13.0431 14.3627 12.032 13.5466 11.2219 12.5487C10.9319 13.0424 10.7803 13.6052 10.7831 14.1777C10.7827 14.7094 10.9138 15.2328 11.1646 15.7015C11.4155 16.1703 11.7783 16.5697 12.2209 16.8642C11.7099 16.8463 11.2106 16.7071 10.764 16.4581V16.4952C10.7625 17.2408 11.019 17.9638 11.4901 18.5417C11.9611 19.1196 12.6176 19.5166 13.3481 19.6655C12.8723 19.7887 12.3756 19.8091 11.8912 19.7251C12.0979 20.3663 12.4998 20.9269 13.0409 21.3283C13.5819 21.7298 14.2349 21.952 14.9085 21.9639C13.766 22.8597 12.3553 23.3451 10.9035 23.342C10.6435 23.3443 10.3836 23.332 10.125 23.3049C11.604 24.2531 13.3249 24.755 15.0817 24.7505C21.0173 24.7505 24.2663 19.8331 24.2663 15.566C24.2663 15.4276 24.2662 15.287 24.255 15.1486C24.8869 14.6883 25.4343 14.1219 25.8727 13.4746C25.2821 13.7349 24.6556 13.9045 24.0143 13.9775C24.6873 13.5772 25.1913 12.9452 25.4318 12.2C24.7995 12.5758 24.1066 12.8389 23.3842 12.9774C23.0822 12.6545 22.7168 12.3973 22.3109 12.222C21.905 12.0466 21.4673 11.9568 21.0251 11.9581H21.0263Z" fill="white"/>
</svg>
