<svg width="185" height="50" viewBox="0 0 185 50" fill="none" xmlns="http://www.w3.org/2000/svg">
<path d="M2.5977 49.6681C1.7124 49.6681 1.01027 49.6681 0.0944498 49.6681C0.0944498 49.0271 0.0944498 48.447 0.0944498 47.8365C0.0944498 38.1898 0.216559 28.5126 0.00286662 18.866C-0.0581882 16.4238 0.857635 14.989 2.5977 13.5542C7.63472 9.4635 12.5496 5.25072 17.5256 1.09898C17.953 0.732656 18.4109 0.427384 19.0215 0C19.0215 16.6069 19.0215 33.0612 19.0215 49.6071C18.3193 49.6071 17.5867 49.6071 16.7319 49.6071C16.7319 34.8623 16.7319 20.1481 16.7319 5.03703C14.595 6.80762 12.7328 8.33399 10.8401 9.89089C8.42844 11.9057 6.0473 13.951 3.6051 15.9353C2.90297 16.5153 2.53664 17.1259 2.56717 18.1028C2.5977 28.0242 2.5977 37.9151 2.5977 47.8365C2.5977 48.4165 2.5977 48.966 2.5977 49.6681Z" fill="white"/>
<path d="M24.7911 49.6986C23.8448 49.6986 23.1427 49.6986 22.3184 49.6986C22.3184 33.4275 22.3184 17.1869 22.3184 0.915802C24.0585 1.74004 24.8522 2.83903 24.8522 4.91489C24.7606 19.2017 24.7911 33.4886 24.7911 47.7754C24.7911 48.3554 24.7911 48.966 24.7911 49.6986Z" fill="white"/>
<path d="M27.7523 5.43387C30.0419 6.28864 30.1335 8.08975 30.1029 10.1351C30.0419 22.7429 30.0724 35.3202 30.0724 47.9281C30.0724 48.4775 30.0724 49.027 30.0724 49.6376C29.2482 49.6376 28.546 49.6376 27.7523 49.6376C27.7523 34.9234 27.7523 20.1786 27.7523 5.43387Z" fill="white"/>
<path d="M35.262 49.6682C34.3767 49.6682 33.6746 49.6682 32.9114 49.6682C32.9114 36.3582 32.9114 23.1093 32.9114 9.52458C34.0409 10.6541 35.3231 11.1425 35.3231 13.0963C35.2315 24.6967 35.262 36.2971 35.262 47.867C35.262 48.4165 35.262 48.966 35.262 49.6682Z" fill="white"/>
<path d="M56.2353 4.12119H64.783V18.9575H62.0966V6.04441H58.8912V18.9575H56.2048V4.12119H56.2353Z" fill="white"/>
<path d="M67.7747 17.9196C67.1031 17.0954 66.7978 15.9048 66.7978 14.2868V8.73084C66.7978 7.14341 67.1336 5.95284 67.7747 5.15913C68.4463 4.36542 69.5453 3.93803 71.0717 3.93803C72.598 3.93803 73.697 4.33489 74.3381 5.15913C75.0097 5.95284 75.315 7.14341 75.315 8.73084V14.2868C75.315 15.8743 74.9792 17.0648 74.3076 17.8891C73.636 18.7133 72.537 19.1407 71.0411 19.1407C69.5453 19.1407 68.4463 18.7438 67.7747 17.9196ZM72.2928 16.5764C72.5065 16.2101 72.598 15.6606 72.598 14.9279V8.08977C72.598 7.35711 72.5065 6.83814 72.2928 6.47181C72.0791 6.10548 71.6822 5.92232 71.0717 5.92232C70.4611 5.92232 70.0643 6.10548 69.8506 6.47181C69.6369 6.83814 69.5453 7.38764 69.5453 8.08977V14.9279C69.5453 15.6606 69.6369 16.2101 69.8506 16.5764C70.0643 16.9427 70.4611 17.1564 71.0717 17.1564C71.6822 17.1564 72.0791 16.9732 72.2928 16.5764Z" fill="white"/>
<path d="M78.8256 6.10547H76.475V4.12119H83.8626V6.10547H81.5425V18.9575H78.8256V6.10547Z" fill="white"/>
<path d="M85.9691 17.9196C85.2975 17.0954 84.9922 15.9048 84.9922 14.2868V8.73084C84.9922 7.14341 85.328 5.95284 85.9691 5.15913C86.6407 4.36542 87.7397 3.93803 89.266 3.93803C90.7924 3.93803 91.8914 4.33489 92.5325 5.15913C93.2041 5.95284 93.5093 7.14341 93.5093 8.73084V14.2868C93.5093 15.8743 93.1735 17.0648 92.5019 17.8891C91.8303 18.7133 90.7314 19.1407 89.2355 19.1407C87.7091 19.1407 86.6101 18.7438 85.9691 17.9196ZM90.4566 16.5764C90.6703 16.2101 90.7619 15.6606 90.7619 14.9279V8.08977C90.7619 7.35711 90.6703 6.83814 90.4566 6.47181C90.2429 6.10548 89.8461 5.92232 89.2355 5.92232C88.625 5.92232 88.2281 6.10548 88.0144 6.47181C87.8007 6.83814 87.7091 7.38764 87.7091 8.08977V14.9279C87.7091 15.6606 87.8007 16.2101 88.0144 16.5764C88.2281 16.9427 88.625 17.1564 89.2355 17.1564C89.8461 17.1564 90.2429 16.9732 90.4566 16.5764Z" fill="white"/>
<path d="M94.4861 17.0038C95.0967 17.0038 95.5546 16.9122 95.8293 16.6985C96.1041 16.4848 96.3178 15.9964 96.4704 15.2332C96.6231 14.47 96.7452 13.1878 96.8978 11.3257L97.3863 4.09067H104.591V18.927H101.904V6.136H99.7674L99.4621 11.6615C99.34 13.6458 99.1874 15.1111 98.9737 16.0574C98.76 17.0038 98.3631 17.7364 97.8136 18.2249C97.2336 18.7133 96.3789 18.9575 95.1883 18.9575C94.9135 18.9575 94.6998 18.9575 94.5167 18.927V17.0038H94.4861Z" fill="white"/>
<path d="M107.613 17.9196C106.941 17.0954 106.636 15.9048 106.636 14.2868V8.73084C106.636 7.14341 106.972 5.95284 107.613 5.15913C108.285 4.36542 109.384 3.93803 110.91 3.93803C112.436 3.93803 113.535 4.33489 114.176 5.15913C114.848 5.95284 115.153 7.14341 115.153 8.73084V14.2868C115.153 15.8743 114.817 17.0648 114.146 17.8891C113.474 18.7133 112.375 19.1407 110.879 19.1407C109.384 19.1407 108.285 18.7438 107.613 17.9196ZM112.131 16.5764C112.345 16.2101 112.436 15.6606 112.436 14.9279V8.08977C112.436 7.35711 112.345 6.83814 112.131 6.47181C111.917 6.10548 111.52 5.92232 110.91 5.92232C110.299 5.92232 109.903 6.10548 109.689 6.47181C109.475 6.83814 109.384 7.38764 109.384 8.08977V14.9279C109.384 15.6606 109.475 16.2101 109.689 16.5764C109.903 16.9427 110.299 17.1564 110.91 17.1564C111.52 17.1564 111.917 16.9732 112.131 16.5764Z" fill="white"/>
<path d="M122.846 12.4857C122.083 12.6078 121.411 12.6994 120.862 12.6994C119.671 12.6994 118.694 12.3941 117.992 11.7836C117.26 11.173 116.924 10.3183 116.924 9.18874V4.12119H119.641V9.18874C119.641 9.79928 119.763 10.2572 120.038 10.5625C120.312 10.8677 120.801 10.9899 121.533 10.9899C121.961 10.9899 122.388 10.9593 122.846 10.8677V4.12119H125.533V18.9575H122.846V12.4857Z" fill="white"/>
<path d="M127.853 4.1212H130.539V10.2877H133.561V4.09067H136.278V18.927H133.561V12.211H130.539V18.927H127.853V4.1212Z" fill="white"/>
<path d="M138.568 4.12119H141.254V10.3488H141.926C143.483 10.3488 144.612 10.6846 145.375 11.3257C146.108 11.9973 146.505 13.0962 146.505 14.6531C146.505 16.2406 146.108 17.3701 145.345 18.0112C144.551 18.6522 143.391 18.9575 141.834 18.9575H138.598V4.12119H138.568ZM141.834 17.1259C142.597 17.1259 143.147 16.9427 143.483 16.6069C143.819 16.2406 143.971 15.5995 143.971 14.6837C143.971 13.8594 143.819 13.2489 143.483 12.852C143.177 12.4552 142.597 12.2415 141.773 12.2415H141.254V17.1259H141.834ZM147.879 4.12119H150.565V18.9575H147.879V4.12119Z" fill="white"/>
<path d="M152.885 4.12119H155.114V13.4931L159.174 4.12119H160.975V18.9575H158.716V9.43296L154.656 18.9575H152.885V4.12119ZM155.175 2.22849C154.717 1.74005 154.503 1.09898 154.503 0.274734H155.907C155.907 0.732646 156.029 1.06845 156.213 1.31267C156.396 1.52636 156.701 1.64847 157.128 1.64847C157.556 1.64847 157.892 1.52636 158.075 1.31267C158.258 1.09898 158.35 0.763175 158.35 0.305264H159.784C159.784 1.1295 159.571 1.80111 159.113 2.25902C158.655 2.74746 158.014 2.96115 157.128 2.96115C156.274 2.93062 155.633 2.6864 155.175 2.22849Z" fill="white"/>
<path d="M56.4795 27.5052H61.6997C64.7219 27.5052 66.2483 29.1842 66.2483 32.5728C66.2483 35.8087 64.6609 37.3961 61.486 37.3961H59.7154V45.3027H56.4795V27.5052ZM60.9671 35.1371C61.8524 35.1371 62.4324 34.9539 62.7376 34.5876C63.0429 34.2213 63.1956 33.5497 63.1956 32.5728C63.1956 31.8706 63.1345 31.3212 63.0429 30.9548C62.9513 30.5885 62.7376 30.3137 62.4018 30.1C62.0966 29.9169 61.6081 29.8253 60.9365 29.8253H59.7154V35.1371H60.9671Z" fill="white"/>
<path d="M68.0494 27.5052H72.3233C74.1855 27.5052 75.5897 27.8715 76.5361 28.5737C77.4519 29.2758 77.9098 30.4969 77.9098 32.237C77.9098 33.3665 77.7572 34.2823 77.4214 34.9844C77.0856 35.6866 76.5361 36.2055 75.7118 36.5413L78.1846 45.3027H74.9181L72.7812 37.1519H71.2548V45.3027H68.0189V27.5052H68.0494ZM72.3233 35.1371C73.2391 35.1371 73.9107 34.9234 74.277 34.496C74.6739 34.0686 74.8571 33.3665 74.8571 32.4201C74.8571 31.4738 74.6739 30.8022 74.3381 30.3748C74.0023 29.9474 73.3612 29.7337 72.4759 29.7337H71.2548V35.1371H72.3233Z" fill="white"/>
<path d="M81.2067 44.0816C80.413 43.1047 80.0162 41.6394 80.0162 39.7467V33.0612C80.0162 31.1685 80.413 29.7337 81.2067 28.7874C82.0005 27.8105 83.3131 27.3221 85.1753 27.3221C87.007 27.3221 88.3196 27.8105 89.1133 28.7874C89.9071 29.7643 90.3039 31.1685 90.3039 33.0612V39.7467C90.3039 41.6394 89.9071 43.0742 89.1133 44.0816C88.3196 45.089 87.007 45.5775 85.1753 45.5775C83.3131 45.5775 82.0005 45.0585 81.2067 44.0816ZM86.6101 42.4942C86.8543 42.0363 86.9764 41.3952 86.9764 40.5099V32.298C86.9764 31.4433 86.8543 30.7717 86.6101 30.3443C86.3659 29.9169 85.8774 29.6727 85.1448 29.6727C84.4121 29.6727 83.9237 29.8864 83.6795 30.3443C83.4352 30.8022 83.3131 31.4433 83.3131 32.298V40.5099C83.3131 41.3647 83.4352 42.0363 83.6795 42.4942C83.9237 42.9521 84.4121 43.1658 85.1448 43.1658C85.8774 43.1658 86.3659 42.9521 86.6101 42.4942Z" fill="white"/>
<path d="M98.0579 27.5052H100.714V38.7393L105.598 27.5052H107.766V45.3027H105.049V33.8854L100.164 45.3027H98.0274V27.5052H98.0579Z" fill="white"/>
<path d="M110.544 27.5052H113.779V34.9234H117.412V27.5052H120.679V45.3027H117.412V37.2435H113.779V45.3027H110.544V27.5052Z" fill="white"/>
<path d="M125.166 29.9169H122.327V27.5358H131.18V29.9169H128.402V45.3332H125.136V29.9169H125.166Z" fill="white"/>
<path d="M132.798 27.5052H140.277V29.7948H136.034V34.9234H139.361V37.1824H136.034V43.1047H140.308V45.3332H132.798V27.5052Z" fill="white"/>
<path d="M142.201 27.5052H147.421C150.443 27.5052 151.969 29.1842 151.969 32.5728C151.969 35.8087 150.382 37.3961 147.207 37.3961H145.436V45.3027H142.201V27.5052ZM146.688 35.1371C147.573 35.1371 148.153 34.9539 148.459 34.5876C148.764 34.2213 148.917 33.5497 148.917 32.5728C148.917 31.8706 148.856 31.3212 148.764 30.9548C148.672 30.5885 148.459 30.3137 148.123 30.1C147.818 29.9169 147.329 29.8253 146.658 29.8253H145.406V35.1371H146.688Z" fill="white"/>
<path d="M153.831 27.5052H157.067V34.9844H157.861C159.693 34.9844 161.066 35.3813 161.982 36.175C162.898 36.9687 163.326 38.2814 163.326 40.1436C163.326 42.0363 162.868 43.3795 161.921 44.1427C160.975 44.9059 159.571 45.3027 157.708 45.3027H153.831V27.5052ZM157.739 43.1353C158.685 43.1353 159.357 42.9216 159.754 42.4942C160.151 42.0668 160.334 41.3036 160.334 40.1741C160.334 39.1667 160.151 38.434 159.754 37.9761C159.387 37.4877 158.685 37.274 157.678 37.274H157.067V43.1353H157.739Z" fill="white"/>
<path d="M165.34 27.5052H172.82V29.7948H168.576V34.9234H171.904V37.1824H168.576V43.1047H172.85V45.3332H165.34V27.5052Z" fill="white"/>
<path d="M174.773 27.5052H179.993C183.016 27.5052 184.542 29.1842 184.542 32.5728C184.542 35.8087 182.955 37.3961 179.78 37.3961H178.009V45.3027H174.773V27.5052ZM179.261 35.1371C180.146 35.1371 180.726 34.9539 181.031 34.5876C181.337 34.2213 181.489 33.5497 181.489 32.5728C181.489 31.8706 181.428 31.3212 181.337 30.9548C181.245 30.5885 181.031 30.3137 180.696 30.1C180.39 29.9169 179.902 29.8253 179.23 29.8253H177.979V35.1371H179.261Z" fill="white"/>
<path d="M55.1363 49.6681V48.5691H185V49.6681H55.1363Z" fill="white"/>
</svg>
