<?xml version="1.0" encoding="utf-8"?>
<!-- Generator: Adobe Illustrator 19.2.0, SVG Export Plug-In . SVG Version: 6.00 Build 0)  -->
<svg version="1.1" id="Слой_1" xmlns="http://www.w3.org/2000/svg" xmlns:xlink="http://www.w3.org/1999/xlink" x="0px" y="0px"
	 viewBox="0 0 157.3 53.5" style="enable-background:new 0 0 157.3 53.5;" xml:space="preserve">
<style type="text/css">
	.st0{fill:#FFFFFF;}
</style>
<g>
	<g>
		<path class="st0" d="M67,5.3h5.3v9.1h-1.6V6.5h-2v7.9H67V5.3z"/>
		<path class="st0" d="M74.1,13.8c-0.4-0.5-0.6-1.2-0.6-2.2V8.2c0-1,0.2-1.7,0.6-2.2s1.1-0.7,2-0.7s1.6,0.2,2,0.7s0.6,1.2,0.6,2.2
			v3.4c0,1-0.2,1.7-0.6,2.2s-1.1,0.8-2,0.8C75.1,14.6,74.5,14.3,74.1,13.8z M76.8,13c0.1-0.2,0.2-0.6,0.2-1V7.8c0-0.4-0.1-0.8-0.2-1
			s-0.4-0.3-0.7-0.3c-0.4,0-0.6,0.1-0.8,0.3c-0.1,0.2-0.2,0.6-0.2,1V12c0,0.4,0.1,0.8,0.2,1s0.4,0.3,0.8,0.3
			C76.5,13.3,76.7,13.2,76.8,13z"/>
		<path class="st0" d="M80.9,6.5h-1.5V5.3h4.5v1.2h-1.4v7.9h-1.7L80.9,6.5L80.9,6.5z"/>
		<path class="st0" d="M85.2,13.8c-0.4-0.5-0.6-1.2-0.6-2.2V8.2c0-1,0.2-1.7,0.6-2.2s1.1-0.7,2-0.7s1.6,0.2,2,0.7s0.6,1.2,0.6,2.2
			v3.4c0,1-0.2,1.7-0.6,2.2s-1.1,0.8-2,0.8C86.3,14.6,85.6,14.3,85.2,13.8z M88,13c0.1-0.2,0.2-0.6,0.2-1V7.8c0-0.4-0.1-0.8-0.2-1
			s-0.4-0.3-0.7-0.3c-0.4,0-0.6,0.1-0.8,0.3c-0.1,0.2-0.2,0.6-0.2,1V12c0,0.4,0.1,0.8,0.2,1s0.4,0.3,0.8,0.3
			C87.6,13.3,87.9,13.2,88,13z"/>
		<path class="st0" d="M90.5,13.2c0.4,0,0.7-0.1,0.8-0.2c0.2-0.1,0.3-0.4,0.4-0.9s0.2-1.3,0.3-2.4l0.3-4.5h4.4v9.1H95V6.4h-1.3
			l-0.2,3.4c-0.1,1.2-0.2,2.1-0.3,2.7c-0.1,0.6-0.4,1-0.7,1.3c-0.3,0.3-0.9,0.4-1.6,0.4c-0.2,0-0.3,0-0.4,0V13.2z"/>
		<path class="st0" d="M98.6,13.8c-0.4-0.5-0.6-1.2-0.6-2.2V8.2c0-1,0.2-1.7,0.6-2.2s1.1-0.7,2-0.7s1.6,0.2,2,0.7s0.6,1.2,0.6,2.2
			v3.4c0,1-0.2,1.7-0.6,2.2s-1.1,0.8-2,0.8S99,14.3,98.6,13.8z M101.3,13c0.1-0.2,0.2-0.6,0.2-1V7.8c0-0.4-0.1-0.8-0.2-1
			s-0.4-0.3-0.7-0.3c-0.4,0-0.6,0.1-0.8,0.3c-0.1,0.2-0.2,0.6-0.2,1V12c0,0.4,0.1,0.8,0.2,1s0.4,0.3,0.8,0.3
			C101,13.3,101.2,13.2,101.3,13z"/>
		<path class="st0" d="M107.9,10.5c-0.5,0.1-0.9,0.1-1.2,0.1c-0.7,0-1.3-0.2-1.8-0.6c-0.4-0.4-0.7-0.9-0.7-1.6V5.3h1.7v3.1
			c0,0.4,0.1,0.7,0.2,0.8c0.2,0.2,0.5,0.3,0.9,0.3c0.3,0,0.5,0,0.8-0.1V5.3h1.7v9.1h-1.7L107.9,10.5L107.9,10.5z"/>
		<path class="st0" d="M111,5.3h1.7v3.8h1.9V5.3h1.7v9.1h-1.7v-4.1h-1.9v4.1H111V5.3z"/>
		<path class="st0" d="M117.6,5.3h1.7v3.8h0.4c1,0,1.7,0.2,2.1,0.6s0.7,1.1,0.7,2c0,1-0.2,1.7-0.7,2.1s-1.2,0.6-2.2,0.6h-2V5.3z
			 M119.6,13.3c0.5,0,0.8-0.1,1-0.3c0.2-0.2,0.3-0.6,0.3-1.2c0-0.5-0.1-0.9-0.3-1.1s-0.5-0.4-1-0.4h-0.3v3H119.6z M123.3,5.3h1.7
			v9.1h-1.7V5.3z"/>
		<path class="st0" d="M126.4,5.3h1.4v5.8l2.5-5.8h1.1v9.1H130V8.5l-2.5,5.9h-1.1V5.3z M127.8,4.2c-0.3-0.3-0.4-0.7-0.4-1.2h0.9
			c0,0.3,0.1,0.5,0.2,0.6c0.1,0.1,0.3,0.2,0.6,0.2s0.5-0.1,0.6-0.2s0.2-0.3,0.2-0.6h0.9c0,0.5-0.1,0.9-0.4,1.2
			c-0.3,0.3-0.7,0.4-1.2,0.4C128.5,4.6,128.1,4.4,127.8,4.2z"/>
		<path class="st0" d="M67.2,20.3h3.6c2.1,0,3.1,1.2,3.1,3.5c0,2.2-1.1,3.3-3.3,3.3h-1.2v5.4h-2.2V20.3z M70.3,25.5
			c0.6,0,1-0.1,1.2-0.4c0.2-0.3,0.3-0.7,0.3-1.4c0-0.5,0-0.8-0.1-1.1s-0.2-0.4-0.4-0.6c-0.2-0.1-0.5-0.2-1-0.2h-0.9v3.6h0.9V25.5z"
			/>
		<path class="st0" d="M75.1,20.3H78c1.3,0,2.2,0.2,2.9,0.7c0.6,0.5,0.9,1.3,0.9,2.5c0,0.8-0.1,1.4-0.3,1.9
			c-0.2,0.5-0.6,0.8-1.2,1.1l1.7,6h-2.2l-1.5-5.6h-1.1v5.6H75L75.1,20.3L75.1,20.3z M78,25.5c0.6,0,1.1-0.1,1.3-0.4
			c0.3-0.3,0.4-0.8,0.4-1.4c0-0.6-0.1-1.1-0.4-1.4c-0.2-0.3-0.7-0.4-1.3-0.4h-0.8v3.7L78,25.5L78,25.5z"/>
		<path class="st0" d="M84.1,31.6c-0.5-0.7-0.8-1.7-0.8-3V24c0-1.3,0.3-2.3,0.8-2.9c0.5-0.7,1.4-1,2.7-1c1.3,0,2.1,0.3,2.7,1
			c0.5,0.7,0.8,1.6,0.8,2.9v4.7c0,1.3-0.3,2.3-0.8,3s-1.4,1-2.7,1C85.5,32.6,84.6,32.3,84.1,31.6z M87.8,30.5
			c0.2-0.3,0.3-0.8,0.3-1.4v-5.6c0-0.6-0.1-1-0.2-1.3c-0.2-0.3-0.5-0.5-1-0.5s-0.8,0.2-1,0.5s-0.3,0.7-0.3,1.3v5.6
			c0,0.6,0.1,1,0.3,1.4c0.2,0.3,0.5,0.5,1,0.5C87.3,31,87.6,30.8,87.8,30.5z"/>
		<path class="st0" d="M95.6,20.3h1.8V28l3.3-7.7h1.5v12.2h-1.8v-7.8l-3.3,7.8h-1.5V20.3z"/>
		<path class="st0" d="M104.2,20.3h2.2v5.1h2.5v-5.1h2.2v12.2h-2.2V27h-2.5v5.5h-2.2V20.3z"/>
		<path class="st0" d="M114.1,21.9h-1.9v-1.6h6.1v1.6h-1.9v10.5h-2.2V21.9H114.1z"/>
		<path class="st0" d="M119.4,20.3h5.1v1.6h-2.9v3.5h2.3v1.5h-2.3v4h2.9v1.5h-5.1V20.3z"/>
		<path class="st0" d="M125.8,20.3h3.6c2.1,0,3.1,1.2,3.1,3.5c0,2.2-1.1,3.3-3.3,3.3H128v5.4h-2.2V20.3z M128.9,25.5
			c0.6,0,1-0.1,1.2-0.4c0.2-0.3,0.3-0.7,0.3-1.4c0-0.5,0-0.8-0.1-1.1s-0.2-0.4-0.4-0.6c-0.2-0.1-0.5-0.2-1-0.2H128v3.6h0.9V25.5z"/>
		<path class="st0" d="M133.8,20.3h2.2v5.1h0.5c1.3,0,2.2,0.3,2.8,0.8s0.9,1.4,0.9,2.7s-0.3,2.2-1,2.7c-0.6,0.5-1.6,0.8-2.9,0.8
			h-2.7V20.3H133.8z M136.4,31c0.6,0,1.1-0.1,1.4-0.4c0.3-0.3,0.4-0.8,0.4-1.6c0-0.7-0.1-1.2-0.4-1.5c-0.3-0.3-0.7-0.5-1.4-0.5H136
			v4H136.4z"/>
		<path class="st0" d="M141.6,20.3h5.1v1.6h-2.9v3.5h2.3v1.5h-2.3v4h2.9v1.5h-5.1V20.3z"/>
		<path class="st0" d="M148.1,20.3h3.6c2.1,0,3.1,1.2,3.1,3.5c0,2.2-1.1,3.3-3.3,3.3h-1.2v5.4h-2.2L148.1,20.3L148.1,20.3z
			 M151.1,25.5c0.6,0,1-0.1,1.2-0.4c0.2-0.3,0.3-0.7,0.3-1.4c0-0.5,0-0.8-0.1-1.1s-0.2-0.4-0.4-0.6c-0.2-0.1-0.5-0.2-1-0.2h-0.9v3.6
			h0.9V25.5z"/>
	</g>
	<line class="st0" x1="67.2" y1="39" x2="153.8" y2="39"/>
	<g>
		<path class="st0" d="M67.8,42.7H69v3.7h2.2v-3.7h1.2v8.6h-1.2v-4H69v4h-1.2V42.7z"/>
		<path class="st0" d="M75.1,42.7h1.2l1.8,8.6H77l-0.4-2.2h-1.8l-0.4,2.2h-1.1L75.1,42.7z M76.4,48.3l-0.7-3.9L75,48.3H76.4z"/>
		<path class="st0" d="M79.7,43.6h-1.5v-0.9h4.1v0.9h-1.4v7.7h-1.2V43.6z"/>
		<path class="st0" d="M84.4,47.5c-0.4-0.2-0.7-0.5-0.9-0.9c-0.2-0.4-0.3-0.9-0.3-1.5c0-1.6,0.9-2.4,2.7-2.4h1.7v8.6h-1.2v-3.6h-0.7
			h-0.3l-1.5,3.6h-1.3L84.4,47.5z M86.4,46.9v-3.3h-0.5c-0.6,0-1,0.1-1.2,0.4c-0.3,0.2-0.4,0.6-0.4,1.2c0,0.6,0.1,1.1,0.4,1.4
			C85,46.9,85.4,47,86,47h0.4C86.4,47,86.4,46.9,86.4,46.9z"/>
		<path class="st0" d="M90.3,47l-1.8-4.2h1.2l1.6,4.2h0.1v-4.3h1v4.2h0.1l1.6-4.2h1.2l-1.8,4.2l2,4.4h-1.2L92.5,47h-0.1v4.3h-1V47
			h-0.1l-1.8,4.3h-1.2L90.3,47z"/>
		<path class="st0" d="M96.1,42.7h1.2v3.7h2.2v-3.7h1.2v8.6h-1.2v-4h-2.2v4h-1.2V42.7z"/>
		<path class="st0" d="M102.1,42.7h1.2v3.6h0.3c0.7,0,1.2,0.1,1.6,0.2c0.4,0.1,0.7,0.4,0.9,0.8c0.2,0.4,0.3,0.9,0.3,1.5
			c0,0.9-0.2,1.5-0.7,1.9c-0.4,0.4-1.1,0.6-2.1,0.6H102L102.1,42.7L102.1,42.7z M103.7,50.5c0.4,0,0.7,0,0.9-0.1
			c0.2-0.1,0.4-0.2,0.5-0.5c0.1-0.2,0.2-0.6,0.2-1.1c0-0.4,0-0.7-0.1-0.9s-0.3-0.4-0.5-0.5s-0.5-0.2-1-0.2h-0.4v3.3H103.7z
			 M107.3,42.7h1.2v8.6h-1.2V42.7z"/>
		<path class="st0" d="M109.9,42.7h3.3v0.9h-2.1v2.9h1.7v0.9h-1.7v3.2h2.2v0.9h-3.4V42.7z"/>
		<path class="st0" d="M116.7,42.7h4.8v8.6h-1.2v-7.8H118v7.8h-1.2v-8.6H116.7z"/>
		<path class="st0" d="M123.2,50.8c-0.4-0.5-0.5-1.2-0.5-2.1v-3.3c0-0.9,0.2-1.6,0.6-2s1-0.7,1.8-0.7s1.4,0.2,1.8,0.7
			c0.4,0.5,0.5,1.1,0.5,2v3.3c0,0.9-0.2,1.6-0.6,2.1c-0.4,0.5-1,0.7-1.8,0.7C124.1,51.5,123.5,51.2,123.2,50.8z M125.9,50.1
			c0.2-0.3,0.2-0.7,0.2-1.2v-3.8c0-0.5-0.1-0.9-0.2-1.2c-0.2-0.3-0.5-0.4-0.9-0.4c-0.5,0-0.8,0.1-0.9,0.4c-0.2,0.3-0.2,0.6-0.2,1.2
			v3.8c0,0.5,0.1,0.9,0.2,1.2c0.2,0.3,0.5,0.4,0.9,0.4C125.4,50.5,125.7,50.4,125.9,50.1z"/>
		<path class="st0" d="M129.5,43.6H128v-0.9h4.1v0.9h-1.4v7.7h-1.2L129.5,43.6L129.5,43.6z"/>
		<path class="st0" d="M133.3,50.8c-0.4-0.5-0.5-1.2-0.5-2.1v-3.3c0-0.9,0.2-1.6,0.6-2s1-0.7,1.8-0.7s1.4,0.2,1.8,0.7
			c0.4,0.5,0.5,1.1,0.5,2v3.3c0,0.9-0.2,1.6-0.6,2.1c-0.4,0.5-1,0.7-1.8,0.7C134.3,51.5,133.7,51.2,133.3,50.8z M136,50.1
			c0.2-0.3,0.2-0.7,0.2-1.2v-3.8c0-0.5-0.1-0.9-0.2-1.2c-0.2-0.3-0.5-0.4-0.9-0.4c-0.5,0-0.8,0.1-0.9,0.4c-0.2,0.3-0.2,0.6-0.2,1.2
			v3.8c0,0.5,0.1,0.9,0.2,1.2c0.2,0.3,0.5,0.4,0.9,0.4C135.6,50.5,135.9,50.4,136,50.1z"/>
		<path class="st0" d="M138,50.5c0.3,0,0.5,0,0.7-0.2c0.2-0.1,0.3-0.4,0.4-0.9c0.1-0.4,0.2-1.2,0.3-2.1l0.3-4.6h3.8v8.6h-1.2v-7.7
			h-1.6l-0.2,3.7c-0.1,1-0.2,1.7-0.3,2.3s-0.4,1-0.7,1.3c-0.3,0.3-0.7,0.4-1.3,0.4c-0.1,0-0.2,0-0.3,0v-0.8H138z"/>
		<path class="st0" d="M144.9,42.7h1.2v3.8h0.4l1.5-3.8h1.2l-1.7,4.1l1.9,4.5h-1.2l-1.7-4.2H146v4.2h-1.2L144.9,42.7L144.9,42.7z"/>
		<path class="st0" d="M150.3,42.7h1.1v6l2.5-6h0.9v8.6h-1.1v-6.1l-2.5,6.1h-0.9V42.7z"/>
	</g>
	<g>
		<path class="st0" d="M54.7,8.9c-2.4,2.9-4.8,5.8-7.2,8.6c-0.6,0.7-1.2,1.4-1.9,2.3c-3.3-2.5-6.6-5-9.9-7.5
			c3.6-4.1,7.2-8.1,11-12.3c2.3,2.4,4.5,4.8,6.7,7.1c0.4,0.4,0.9,0.7,1.3,1.1C54.7,8.4,54.7,8.7,54.7,8.9z"/>
		<path class="st0" d="M16.9,28.3c5.3-4.4,10.5-8.8,15.8-13.2c3.3,2.3,6.7,4.6,10.5,7.2c-3.4,3.1-6.8,6-9.9,9.1
			c-2.2,2.3-4.3,2.5-7,1C23.3,30.9,20,29.7,16.9,28.3z"/>
		<path class="st0" d="M0,38.7c4.6-2.8,8.8-5.5,13.1-8.1c0.4-0.2,1-0.2,1.4-0.1c4.3,1.8,8.5,3.6,13.2,5.6c-4.6,2.8-8.9,5.5-13.3,8.2
			c-0.3,0.2-0.8,0.2-1.1,0.1C8.9,42.5,4.6,40.7,0,38.7z"/>
		<path class="st0" d="M33.1,34.8c4.1-3.8,8-7.4,12.1-11.2c1.9,1.3,4.1,2.8,6.4,4.4c-0.3,0.5-0.5,1-0.9,1.4c-2.8,2.7-5.5,5.4-8.4,8
			c-0.4,0.3-1.2,0.5-1.7,0.4C38.2,37,35.8,35.9,33.1,34.8z"/>
		<path class="st0" d="M16.9,45.5c2.9-1.9,5.6-3.5,8.2-5.2c1.6-1,3-2.7,4.7-2.9s3.5,1.1,5.3,1.7c1.1,0.4,2.3,0.8,3.8,1.4
			c-2,1.6-3.8,2.9-5.5,4.3c-0.6,0.4-1.3,0.7-1.7,1.2c-2.8,2.7-5.8,3.1-9.3,1.4C20.7,46.5,18.9,46.2,16.9,45.5z"/>
		<path class="st0" d="M47.5,44.3c-3,2.3-5.9,4.6-8.9,6.8c-0.4,0.3-1.1,0.3-1.6,0.1c-2.1-0.5-4.2-1.2-6.6-1.8
			c1.1-0.8,1.9-1.5,2.8-2.2c2.2-1.7,4.5-3.3,6.7-5c0.9-0.7,1.6-1,2.7-0.5c1.6,0.7,3.2,1.3,4.8,2C47.4,43.9,47.4,44.1,47.5,44.3z"/>
	</g>
</g>
</svg>
