<?xml version="1.0" encoding="utf-8"?>
<!-- Generator: Adobe Illustrator 19.2.0, SVG Export Plug-In . SVG Version: 6.00 Build 0)  -->
<svg version="1.1" id="Слой_1" xmlns="http://www.w3.org/2000/svg" xmlns:xlink="http://www.w3.org/1999/xlink" x="0px" y="0px"
	 viewBox="0 0 134 38.8" style="enable-background:new 0 0 134 38.8;" xml:space="preserve">
<style type="text/css">
	.st0{fill:#FFFFFF;}
</style>
<g>
	<path class="st0" d="M15.4,38.8c-0.5,0-0.9,0-1.4,0c0-0.4,0-11.1,0-11.5c0-5.4,0.1-10.7-0.1-16.1c0-1.4,0.5-2.2,1.4-3
		C18.2,6,21,3.6,23.7,1.3C24,1.1,24.2,1,24.6,0.7c0,9.2,0,28.9,0,38.1c-0.4,0-0.8,0-1.3,0c0-8.2,0-26.9,0-35.3
		c-1.2,1-2.2,1.8-3.3,2.7c-1.3,1.1-2.7,2.3-4,3.4c-0.4,0.3-0.6,0.7-0.6,1.2c0,5.5,0,11,0,16.5C15.4,27.6,15.4,38.4,15.4,38.8z"/>
	<path class="st0" d="M27.8,38.8c-0.5,0-0.9,0-1.4,0c0-9,0-28.5,0-37.6c1,0.5,1.4,1.1,1.4,2.2c-0.1,7.9,0,15.9,0,23.8
		C27.8,27.6,27.8,38.4,27.8,38.8z"/>
	<path class="st0" d="M29.4,3.7c1.3,0.5,1.3,1.5,1.3,2.6c0,7,0,14,0,21c0,0.3,0,11.1,0,11.4c-0.5,0-0.8,0-1.3,0
		C29.4,30.6,29.4,11.9,29.4,3.7z"/>
	<path class="st0" d="M33.6,38.8c-0.5,0-0.9,0-1.3,0c0-7.4,0-25.2,0-32.8c0.6,0.6,1.3,0.9,1.3,2c-0.1,6.4,0,12.9,0,19.3
		C33.6,27.6,33.6,38.4,33.6,38.8z"/>
	<path class="st0" d="M45.3,3H50v8.2h-1.5V4.1h-1.8v7.2h-1.5L45.3,3L45.3,3z"/>
	<path class="st0" d="M51.7,10.7c-0.4-0.5-0.5-1.1-0.5-2V5.6c0-0.9,0.2-1.5,0.5-2c0.4-0.4,1-0.7,1.8-0.7c0.8,0,1.5,0.2,1.8,0.7
		c0.4,0.4,0.5,1.1,0.5,2v3.1c0,0.9-0.2,1.5-0.6,2c-0.4,0.5-1,0.7-1.8,0.7S52.1,11.1,51.7,10.7z M54.2,9.9c0.1-0.2,0.2-0.5,0.2-0.9
		V5.2c0-0.4-0.1-0.7-0.2-0.9C54.1,4.1,53.9,4,53.5,4c-0.3,0-0.6,0.1-0.7,0.3c-0.1,0.2-0.2,0.5-0.2,0.9V9c0,0.4,0.1,0.7,0.2,0.9
		c0.1,0.2,0.3,0.3,0.7,0.3C53.9,10.3,54.1,10.2,54.2,9.9z"/>
	<path class="st0" d="M57.8,4.1h-1.3V3h4.1v1.1h-1.3v7.1h-1.5V4.1z"/>
	<path class="st0" d="M61.8,10.7c-0.4-0.5-0.5-1.1-0.5-2V5.6c0-0.9,0.2-1.5,0.5-2c0.4-0.4,1-0.7,1.8-0.7c0.8,0,1.5,0.2,1.8,0.7
		C65.8,4,66,4.7,66,5.6v3.1c0,0.9-0.2,1.5-0.6,2c-0.4,0.5-1,0.7-1.8,0.7C62.8,11.4,62.2,11.1,61.8,10.7z M64.3,9.9
		c0.1-0.2,0.2-0.5,0.2-0.9V5.2c0-0.4-0.1-0.7-0.2-0.9C64.2,4.1,64,4,63.6,4c-0.3,0-0.6,0.1-0.7,0.3c-0.1,0.2-0.2,0.5-0.2,0.9V9
		c0,0.4,0.1,0.7,0.2,0.9c0.1,0.2,0.3,0.3,0.7,0.3C64,10.3,64.2,10.2,64.3,9.9z"/>
	<path class="st0" d="M66.5,10.2c0.3,0,0.6-0.1,0.7-0.2c0.2-0.1,0.3-0.4,0.4-0.8c0.1-0.4,0.2-1.1,0.2-2.2l0.3-4h4v8.2h-1.5V4.1h-1.2
		l-0.2,3.1c-0.1,1.1-0.2,1.9-0.3,2.4c-0.1,0.5-0.3,0.9-0.6,1.2c-0.3,0.3-0.8,0.4-1.5,0.4c-0.2,0-0.3,0-0.4,0L66.5,10.2L66.5,10.2z"
		/>
	<path class="st0" d="M73.8,10.7c-0.4-0.5-0.5-1.1-0.5-2V5.6c0-0.9,0.2-1.5,0.5-2c0.4-0.4,1-0.7,1.8-0.7s1.5,0.2,1.8,0.7
		C77.9,4,78,4.7,78,5.6v3.1c0,0.9-0.2,1.5-0.6,2c-0.4,0.5-1,0.7-1.8,0.7C74.8,11.4,74.2,11.1,73.8,10.7z M76.3,9.9
		c0.1-0.2,0.2-0.5,0.2-0.9V5.2c0-0.4-0.1-0.7-0.2-0.9C76.2,4.1,76,4,75.7,4c-0.3,0-0.6,0.1-0.7,0.3c-0.1,0.2-0.2,0.5-0.2,0.9V9
		c0,0.4,0.1,0.7,0.2,0.9c0.1,0.2,0.3,0.3,0.7,0.3C76,10.3,76.2,10.2,76.3,9.9z"/>
	<path class="st0" d="M82.3,7.7c-0.4,0.1-0.8,0.1-1.1,0.1c-0.7,0-1.2-0.2-1.6-0.5C79.2,6.9,79,6.5,79,5.8V3h1.5v2.8
		c0,0.3,0.1,0.6,0.2,0.8c0.2,0.2,0.4,0.2,0.8,0.2c0.2,0,0.5,0,0.7-0.1V3h1.5v8.2h-1.5V7.7L82.3,7.7z"/>
	<path class="st0" d="M85.1,3h1.5v3.4h1.7V3h1.5v8.2h-1.5V7.5h-1.7v3.7h-1.5V3z"/>
	<path class="st0" d="M91,3h1.5v3.5h0.4c0.9,0,1.5,0.2,1.9,0.5c0.4,0.4,0.6,1,0.6,1.8c0,0.9-0.2,1.5-0.6,1.9c-0.4,0.4-1.1,0.5-2,0.5
		h-1.8L91,3L91,3z M92.9,10.2c0.4,0,0.7-0.1,0.9-0.3C94,9.7,94,9.4,94,8.9c0-0.5-0.1-0.8-0.3-1c-0.2-0.2-0.5-0.3-1-0.3h-0.3v2.7
		H92.9z M96.2,3h1.5v8.2h-1.5V3z"/>
	<path class="st0" d="M99,3h1.2v5.2l2.3-5.2h1v8.2h-1.3V6l-2.3,5.3h-1V3z M100.3,2c-0.3-0.3-0.4-0.6-0.4-1.1h0.8
		c0,0.3,0.1,0.4,0.2,0.6c0.1,0.1,0.3,0.2,0.5,0.2c0.2,0,0.4-0.1,0.5-0.2c0.1-0.1,0.2-0.3,0.2-0.6h0.8c0,0.5-0.1,0.8-0.4,1.1
		c-0.3,0.3-0.6,0.4-1.1,0.4C100.9,2.3,100.5,2.2,100.3,2z"/>
	<path class="st0" d="M45.4,16h2.9c1.7,0,2.5,0.9,2.5,2.8c0,1.8-0.9,2.7-2.6,2.7h-1v4.4h-1.8V16z M47.9,20.3c0.5,0,0.8-0.1,1-0.3
		c0.2-0.2,0.3-0.6,0.3-1.1c0-0.4,0-0.7-0.1-0.9c-0.1-0.2-0.2-0.4-0.4-0.5c-0.2-0.1-0.4-0.2-0.8-0.2h-0.7v3H47.9L47.9,20.3z"/>
	<path class="st0" d="M51.8,16h2.4c1,0,1.8,0.2,2.3,0.6c0.5,0.4,0.8,1.1,0.8,2c0,0.6-0.1,1.1-0.3,1.5s-0.5,0.7-1,0.9l1.4,4.9h-1.8
		l-1.2-4.5h-0.8v4.5h-1.8L51.8,16L51.8,16z M54.2,20.3c0.5,0,0.9-0.1,1.1-0.4c0.2-0.2,0.3-0.6,0.3-1.2c0-0.5-0.1-0.9-0.3-1.1
		c-0.2-0.2-0.5-0.4-1-0.4h-0.7v3H54.2L54.2,20.3z"/>
	<path class="st0" d="M59.1,25.2c-0.4-0.5-0.7-1.4-0.7-2.4v-3.7c0-1.1,0.2-1.8,0.7-2.4c0.4-0.5,1.2-0.8,2.2-0.8c1,0,1.7,0.3,2.2,0.8
		c0.4,0.5,0.7,1.3,0.7,2.4v3.7c0,1.1-0.2,1.8-0.7,2.4c-0.4,0.6-1.2,0.8-2.2,0.8C60.3,26.1,59.6,25.8,59.1,25.2z M62.2,24.3
		c0.1-0.3,0.2-0.6,0.2-1.1v-4.6c0-0.5-0.1-0.8-0.2-1.1c-0.1-0.2-0.4-0.4-0.8-0.4s-0.7,0.1-0.8,0.4s-0.2,0.6-0.2,1.1v4.6
		c0,0.5,0.1,0.8,0.2,1.1c0.1,0.3,0.4,0.4,0.8,0.4S62,24.6,62.2,24.3z"/>
	<path class="st0" d="M68.5,16H70v6.2l2.7-6.2h1.2v9.9h-1.5v-6.3l-2.7,6.3h-1.2L68.5,16L68.5,16z"/>
	<path class="st0" d="M75.5,16h1.8v4.1h2V16h1.8v9.9h-1.8v-4.5h-2v4.5h-1.8V16z"/>
	<path class="st0" d="M83.6,17.4H82V16h4.9v1.3h-1.5v8.6h-1.8L83.6,17.4L83.6,17.4z"/>
	<path class="st0" d="M87.8,16H92v1.3h-2.4v2.9h1.9v1.3h-1.9v3.3H92v1.2h-4.2V16z"/>
	<path class="st0" d="M93.1,16H96c1.7,0,2.5,0.9,2.5,2.8c0,1.8-0.9,2.7-2.6,2.7h-1v4.4h-1.8V16z M95.6,20.3c0.5,0,0.8-0.1,1-0.3
		c0.2-0.2,0.3-0.6,0.3-1.1c0-0.4,0-0.7-0.1-0.9c-0.1-0.2-0.2-0.4-0.4-0.5c-0.2-0.1-0.4-0.2-0.8-0.2h-0.7v3H95.6L95.6,20.3z"/>
	<path class="st0" d="M99.5,16h1.8v4.2h0.4c1,0,1.8,0.2,2.3,0.7c0.5,0.4,0.7,1.2,0.7,2.2c0,1.1-0.3,1.8-0.8,2.2
		c-0.5,0.4-1.3,0.6-2.3,0.6h-2.2V16z M101.7,24.7c0.5,0,0.9-0.1,1.1-0.4c0.2-0.2,0.3-0.7,0.3-1.3c0-0.6-0.1-1-0.3-1.2
		c-0.2-0.3-0.6-0.4-1.2-0.4h-0.3v3.3H101.7L101.7,24.7z"/>
	<path class="st0" d="M105.9,16h4.2v1.3h-2.4v2.9h1.8v1.3h-1.8v3.3h2.4v1.2h-4.2V16z"/>
	<path class="st0" d="M111.2,16h2.9c1.7,0,2.5,0.9,2.5,2.8c0,1.8-0.9,2.7-2.6,2.7h-1v4.4h-1.8V16z M113.7,20.3c0.5,0,0.8-0.1,1-0.3
		c0.2-0.2,0.3-0.6,0.3-1.1c0-0.4,0-0.7-0.1-0.9c-0.1-0.2-0.2-0.4-0.4-0.5c-0.2-0.1-0.4-0.2-0.8-0.2h-0.7v3H113.7L113.7,20.3z"/>
	<path d="M44.7,38.8V28.3h72.2v10.5H44.7z"/>
	<g>
		<path class="st0" d="M53.4,36.4h-0.7v-2.3h-2v2.3H50v-5.2h0.7v2.3h2v-2.3h0.7V36.4z"/>
		<path class="st0" d="M56.8,35h-1.6l-0.4,1.3h-0.7l1.6-5.2h0.7l1.6,5.2h-0.7L56.8,35z M55.4,34.5h1.3L56,32.2h0L55.4,34.5z"/>
		<path class="st0" d="M61.1,31.7h-1.3v4.6H59v-4.6h-1.3v-0.5h3.4V31.7z"/>
		<path class="st0" d="M62.1,36.4h-0.8l1-2.2c-0.3-0.1-0.5-0.3-0.6-0.5c-0.1-0.2-0.2-0.5-0.2-0.8c0-0.5,0.1-0.9,0.4-1.2
			c0.3-0.3,0.7-0.4,1.2-0.4h1.5v5.2h-0.7v-2H63L62.1,36.4z M63.8,31.7h-0.7c-0.3,0-0.5,0.1-0.6,0.3c-0.1,0.2-0.2,0.4-0.2,0.8
			c0,0.3,0.1,0.6,0.2,0.8c0.1,0.2,0.4,0.3,0.6,0.3h0.7V31.7z"/>
		<path class="st0" d="M68.8,34h-0.5v2.3h-0.7V34h-0.5L66,36.4h-0.9l1.5-2.8l-1.4-2.4h0.9l1.1,2.2h0.5v-2.2h0.7v2.2h0.5l1.1-2.2h0.9
			l-1.3,2.4l1.4,2.8h-0.9L68.8,34z"/>
		<path class="st0" d="M74.8,36.4h-0.7v-2.3h-2v2.3h-0.7v-5.2h0.7v2.3h2v-2.3h0.7V36.4z"/>
		<path class="st0" d="M76.6,33.3h0.9c0.5,0,0.9,0.1,1.1,0.4c0.3,0.3,0.4,0.6,0.4,1.1c0,0.5-0.1,0.8-0.4,1.1
			c-0.3,0.3-0.7,0.4-1.1,0.4h-1.6v-5.2h0.7V33.3z M76.6,33.8v2h0.9c0.3,0,0.5-0.1,0.6-0.3c0.1-0.2,0.2-0.4,0.2-0.7
			c0-0.3-0.1-0.5-0.2-0.7c-0.1-0.2-0.4-0.3-0.6-0.3H76.6z M80.2,36.4h-0.7v-5.2h0.7V36.4z"/>
		<path class="st0" d="M83.9,34h-1.9v1.9h2.2v0.5h-2.9v-5.2h2.9v0.5h-2.2v1.7h1.9V34z"/>
		<path class="st0" d="M89.8,36.4h-0.7v-4.6h-2v4.6h-0.7v-5.2h3.4V36.4z"/>
		<path class="st0" d="M94.1,34.5c0,0.6-0.2,1.1-0.5,1.4c-0.3,0.3-0.7,0.5-1.3,0.5c-0.5,0-0.9-0.2-1.3-0.5c-0.3-0.3-0.5-0.8-0.5-1.4
			v-1.4c0-0.6,0.2-1.1,0.5-1.4c0.3-0.3,0.7-0.5,1.2-0.5c0.5,0,1,0.2,1.3,0.5c0.3,0.3,0.5,0.8,0.5,1.4V34.5z M93.4,33.1
			c0-0.4-0.1-0.8-0.3-1c-0.2-0.2-0.4-0.3-0.8-0.3c-0.3,0-0.6,0.1-0.7,0.3c-0.2,0.2-0.3,0.6-0.3,1v1.4c0,0.5,0.1,0.8,0.3,1
			c0.2,0.2,0.4,0.4,0.7,0.4c0.3,0,0.6-0.1,0.8-0.3c0.2-0.2,0.3-0.6,0.3-1V33.1z"/>
		<path class="st0" d="M97.8,31.7h-1.3v4.6h-0.7v-4.6h-1.3v-0.5h3.4V31.7z"/>
		<path class="st0" d="M101.6,34.5c0,0.6-0.2,1.1-0.5,1.4c-0.3,0.3-0.7,0.5-1.3,0.5c-0.5,0-0.9-0.2-1.3-0.5
			c-0.3-0.3-0.5-0.8-0.5-1.4v-1.4c0-0.6,0.2-1.1,0.5-1.4c0.3-0.3,0.7-0.5,1.2-0.5c0.5,0,1,0.2,1.3,0.5c0.3,0.3,0.5,0.8,0.5,1.4V34.5
			z M100.9,33.1c0-0.4-0.1-0.8-0.3-1c-0.2-0.2-0.4-0.3-0.8-0.3c-0.3,0-0.6,0.1-0.7,0.3c-0.2,0.2-0.3,0.6-0.3,1v1.4
			c0,0.5,0.1,0.8,0.3,1c0.2,0.2,0.4,0.4,0.7,0.4c0.3,0,0.6-0.1,0.8-0.3c0.2-0.2,0.3-0.6,0.3-1V33.1z"/>
		<path class="st0" d="M105.8,31.2v5.2H105v-4.6h-1.4l0,1.8c0,1-0.1,1.7-0.3,2.1s-0.6,0.7-1.1,0.7H102v-0.5h0.1
			c0.3,0,0.5-0.2,0.6-0.5c0.1-0.3,0.2-0.9,0.2-1.8l0-2.4H105.8z"/>
		<path class="st0" d="M108,34h-0.5v2.3h-0.7v-5.2h0.7v2.3h0.4l1.4-2.3h0.9l-1.6,2.4l1.7,2.7h-0.9L108,34z"/>
		<path class="st0" d="M113.4,31.2h0.7v5.2h-0.7v-3.8l0,0l-2,3.8h-0.7v-5.2h0.7V35l0,0L113.4,31.2z"/>
	</g>
</g>
</svg>
