<svg width="134" height="36" viewBox="0 0 134 36" fill="none" xmlns="http://www.w3.org/2000/svg">
<path d="M1.88158 35.9758C1.24033 35.9758 0.731765 35.9758 0.0684123 35.9758C0.0684123 35.5115 0.0684123 35.0914 0.0684123 34.6491C0.0684123 27.6618 0.156859 20.6524 0.00207636 13.6651C-0.0421472 11.8961 0.621206 10.8569 1.88158 9.81762C5.53002 6.85464 9.09001 3.80322 12.6942 0.796021C13.0038 0.53068 13.3355 0.309565 13.7777 0C13.7777 12.0288 13.7777 23.947 13.7777 35.9316C13.2691 35.9316 12.7385 35.9316 12.1193 35.9316C12.1193 25.2516 12.1193 14.5938 12.1193 3.64844C10.5715 4.93092 9.22268 6.03651 7.85175 7.16421C6.10492 8.62359 4.38021 10.1051 2.61126 11.5423C2.10269 11.9625 1.83735 12.4047 1.85946 13.1123C1.88157 20.2986 1.88158 27.4628 1.88158 34.6491C1.88158 35.0693 1.88158 35.4673 1.88158 35.9758Z" fill="white"/>
<path d="M17.9568 35.9979C17.2714 35.9979 16.7628 35.9979 16.1658 35.9979C16.1658 24.2124 16.1658 12.4489 16.1658 0.66333C17.4261 1.26035 18.001 2.05637 18.001 3.55997C17.9347 13.9083 17.9568 24.2566 17.9568 34.6049C17.9568 35.025 17.9568 35.4672 17.9568 35.9979Z" fill="white"/>
<path d="M20.1017 3.93588C21.7601 4.55501 21.8264 5.8596 21.8043 7.34109C21.7601 16.4733 21.7822 25.5833 21.7822 34.7155C21.7822 35.1135 21.7822 35.5115 21.7822 35.9537C21.1852 35.9537 20.6766 35.9537 20.1017 35.9537C20.1017 25.2958 20.1017 14.6159 20.1017 3.93588Z" fill="white"/>
<path d="M25.5411 35.9758C24.8999 35.9758 24.3913 35.9758 23.8385 35.9758C23.8385 26.3351 23.8385 16.7386 23.8385 6.89888C24.6566 7.71702 25.5853 8.0708 25.5853 9.48596C25.519 17.8884 25.5411 26.2909 25.5411 34.6713C25.5411 35.0693 25.5411 35.4673 25.5411 35.9758Z" fill="white"/>
<path d="M40.7326 2.98508H46.9239V13.7314H44.9781V4.37812H42.6563V13.7314H40.7105V2.98508H40.7326Z" fill="white"/>
<path d="M49.0909 12.9796C48.6044 12.3826 48.3833 11.5202 48.3833 10.3483V6.32396C48.3833 5.17415 48.6265 4.31179 49.0909 3.73689C49.5773 3.16198 50.3733 2.85242 51.4789 2.85242C52.5845 2.85242 53.3805 3.13987 53.8449 3.73689C54.3313 4.31179 54.5525 5.17415 54.5525 6.32396V10.3483C54.5525 11.4981 54.3092 12.3605 53.8228 12.9575C53.3363 13.5545 52.5403 13.8641 51.4568 13.8641C50.3733 13.8641 49.5773 13.5766 49.0909 12.9796ZM52.3634 12.0067C52.5182 11.7413 52.5845 11.3433 52.5845 10.8126V5.85962C52.5845 5.32894 52.5182 4.95303 52.3634 4.68769C52.2086 4.42235 51.9212 4.28968 51.4789 4.28968C51.0367 4.28968 50.7492 4.42235 50.5945 4.68769C50.4397 4.95303 50.3733 5.35105 50.3733 5.85962V10.8126C50.3733 11.3433 50.4397 11.7413 50.5945 12.0067C50.7492 12.272 51.0367 12.4268 51.4789 12.4268C51.9212 12.4268 52.2086 12.2941 52.3634 12.0067Z" fill="white"/>
<path d="M57.0953 4.42234H55.3927V2.98508H60.7437V4.42234H59.0632V13.7314H57.0953V4.42234Z" fill="white"/>
<path d="M62.2695 12.9796C61.783 12.3826 61.5619 11.5202 61.5619 10.3483V6.32396C61.5619 5.17415 61.8051 4.31179 62.2695 3.73689C62.7559 3.16198 63.552 2.85242 64.6575 2.85242C65.7631 2.85242 66.5592 3.13987 67.0235 3.73689C67.51 4.31179 67.7311 5.17415 67.7311 6.32396V10.3483C67.7311 11.4981 67.4879 12.3605 67.0014 12.9575C66.5149 13.5545 65.7189 13.8641 64.6354 13.8641C63.5298 13.8641 62.7338 13.5766 62.2695 12.9796ZM65.5199 12.0067C65.6747 11.7413 65.741 11.3433 65.741 10.8126V5.85962C65.741 5.32894 65.6747 4.95303 65.5199 4.68769C65.3651 4.42235 65.0777 4.28968 64.6354 4.28968C64.1932 4.28968 63.9057 4.42235 63.751 4.68769C63.5962 4.95303 63.5298 5.35105 63.5298 5.85962V10.8126C63.5298 11.3433 63.5962 11.7413 63.751 12.0067C63.9057 12.272 64.1932 12.4268 64.6354 12.4268C65.0777 12.4268 65.3651 12.2941 65.5199 12.0067Z" fill="white"/>
<path d="M68.4386 12.3162C68.8809 12.3162 69.2125 12.2499 69.4115 12.0951C69.6105 11.9403 69.7653 11.5866 69.8759 11.0338C69.9864 10.481 70.0749 9.55227 70.1854 8.20345L70.5392 2.96297H75.7576V13.7093H73.8118V4.44445H72.264L72.0428 8.44668C71.9544 9.88395 71.8438 10.9453 71.6891 11.6308C71.5343 12.3162 71.2468 12.8469 70.8488 13.2007C70.4287 13.5545 69.8096 13.7314 68.9472 13.7314C68.7482 13.7314 68.5934 13.7314 68.4607 13.7093V12.3162H68.4386Z" fill="white"/>
<path d="M77.9467 12.9796C77.4602 12.3826 77.2391 11.5202 77.2391 10.3483V6.32396C77.2391 5.17415 77.4824 4.31179 77.9467 3.73689C78.4332 3.16198 79.2292 2.85242 80.3348 2.85242C81.4404 2.85242 82.2364 3.13987 82.7007 3.73689C83.1872 4.31179 83.4083 5.17415 83.4083 6.32396V10.3483C83.4083 11.4981 83.1651 12.3605 82.6786 12.9575C82.1922 13.5545 81.3961 13.8641 80.3127 13.8641C79.2292 13.8641 78.4332 13.5766 77.9467 12.9796ZM81.2192 12.0067C81.374 11.7413 81.4404 11.3433 81.4404 10.8126V5.85962C81.4404 5.32894 81.374 4.95303 81.2192 4.68769C81.0645 4.42235 80.777 4.28968 80.3348 4.28968C79.8925 4.28968 79.6051 4.42235 79.4503 4.68769C79.2955 4.95303 79.2292 5.35105 79.2292 5.85962V10.8126C79.2292 11.3433 79.2955 11.7413 79.4503 12.0067C79.6051 12.272 79.8925 12.4268 80.3348 12.4268C80.777 12.4268 81.0645 12.2941 81.2192 12.0067Z" fill="white"/>
<path d="M88.9805 9.0437C88.4277 9.13215 87.9412 9.19848 87.5432 9.19848C86.6808 9.19848 85.9733 8.97736 85.4647 8.53513C84.934 8.09289 84.6908 7.47376 84.6908 6.65563V2.98508H86.6587V6.65563C86.6587 7.09786 86.7472 7.42954 86.9462 7.65066C87.1452 7.87177 87.499 7.96022 88.0297 7.96022C88.3392 7.96022 88.6488 7.93811 88.9805 7.87177V2.98508H90.9263V13.7314H88.9805V9.0437V9.0437Z" fill="white"/>
<path d="M92.6068 2.98508H94.5526V7.45165H96.7417V2.96297H98.7096V13.7093H96.7417V8.8447H94.5526V13.7093H92.6068V2.98508Z" fill="white"/>
<path d="M100.368 2.98508H102.314V7.49587H102.8C103.928 7.49587 104.746 7.7391 105.299 8.20345C105.83 8.68991 106.117 9.48593 106.117 10.6136C106.117 11.7634 105.83 12.5816 105.277 13.0459C104.702 13.5103 103.862 13.7314 102.734 13.7314H100.39V2.98508H100.368ZM102.734 12.4047C103.287 12.4047 103.685 12.272 103.928 12.0288C104.171 11.7634 104.282 11.2991 104.282 10.6357C104.282 10.0387 104.171 9.59649 103.928 9.30904C103.707 9.02159 103.287 8.8668 102.69 8.8668H102.314V12.4047H102.734ZM107.112 2.98508H109.058V13.7314H107.112V2.98508Z" fill="white"/>
<path d="M110.738 2.98507H112.353V9.77338L115.293 2.98507H116.598V13.7314H114.962V6.83252L112.021 13.7314H110.738V2.98507ZM112.397 1.61414C112.065 1.26036 111.91 0.796007 111.91 0.19899H112.927C112.927 0.530666 113.016 0.773898 113.149 0.950792C113.281 1.10557 113.502 1.19402 113.812 1.19402C114.122 1.19402 114.365 1.10557 114.497 0.950792C114.63 0.796009 114.696 0.552779 114.696 0.221103H115.736C115.736 0.81812 115.581 1.30458 115.249 1.63625C114.918 1.99004 114.453 2.14483 113.812 2.14483C113.193 2.12271 112.728 1.94582 112.397 1.61414Z" fill="white"/>
<path d="M40.9095 19.9227H44.6906C46.8797 19.9227 47.9853 21.1388 47.9853 23.5933C47.9853 25.9371 46.8354 27.0869 44.5358 27.0869H43.2533V32.8139H40.9095V19.9227ZM44.1599 25.4506C44.8012 25.4506 45.2213 25.318 45.4424 25.0526C45.6635 24.7873 45.7741 24.3008 45.7741 23.5933C45.7741 23.0847 45.7299 22.6867 45.6635 22.4213C45.5972 22.156 45.4424 21.957 45.1992 21.8022C44.9781 21.6695 44.6243 21.6032 44.1378 21.6032H43.2533V25.4506H44.1599V25.4506Z" fill="white"/>
<path d="M49.2899 19.9227H52.3855C53.7343 19.9227 54.7515 20.188 55.4369 20.6966C56.1003 21.2052 56.432 22.0897 56.432 23.35C56.432 24.1682 56.3214 24.8315 56.0782 25.3401C55.835 25.8487 55.4369 26.2246 54.8399 26.4678L56.631 32.8139H54.265L52.7172 26.91H51.6116V32.8139H49.2678V19.9227H49.2899ZM52.3855 25.4506C53.0489 25.4506 53.5353 25.2959 53.8007 24.9863C54.0881 24.6767 54.2208 24.1682 54.2208 23.4827C54.2208 22.7972 54.0881 22.3108 53.8449 22.0012C53.6017 21.6916 53.1373 21.5369 52.4961 21.5369H51.6116V25.4506H52.3855V25.4506Z" fill="white"/>
<path d="M58.82 31.9294C58.2451 31.2218 57.9576 30.1604 57.9576 28.7895V23.947C57.9576 22.5761 58.2451 21.5369 58.82 20.8514C59.3949 20.1438 60.3457 19.79 61.6945 19.79C63.0212 19.79 63.972 20.1438 64.547 20.8514C65.1219 21.559 65.4093 22.5761 65.4093 23.947V28.7895C65.4093 30.1604 65.1219 31.1997 64.547 31.9294C63.972 32.6591 63.0212 33.0129 61.6945 33.0129C60.3457 33.0129 59.3949 32.637 58.82 31.9294ZM62.7338 30.7796C62.9107 30.4479 62.9991 29.9835 62.9991 29.3423V23.3942C62.9991 22.7751 62.9107 22.2887 62.7338 21.9791C62.5569 21.6695 62.2031 21.4926 61.6724 21.4926C61.1417 21.4926 60.788 21.6474 60.6111 21.9791C60.4342 22.3108 60.3457 22.7751 60.3457 23.3942V29.3423C60.3457 29.9614 60.4342 30.4479 60.6111 30.7796C60.788 31.1112 61.1417 31.266 61.6724 31.266C62.2031 31.266 62.5569 31.1112 62.7338 30.7796Z" fill="white"/>
<path d="M71.0257 19.9227H72.9494V28.0598L76.4873 19.9227H78.0573V32.8139H76.0893V24.5441L72.5514 32.8139H71.0036V19.9227H71.0257Z" fill="white"/>
<path d="M80.0694 19.9227H82.4132V25.2959H85.0446V19.9227H87.4105V32.8139H85.0446V26.9763H82.4132V32.8139H80.0694V19.9227Z" fill="white"/>
<path d="M90.661 21.6695H88.6046V19.9448H95.017V21.6695H93.0048V32.836H90.6389V21.6695H90.661Z" fill="white"/>
<path d="M96.1889 19.9227H101.606V21.5811H98.5327V25.2959H100.943V26.9321H98.5327V31.2218H101.628V32.836H96.1889V19.9227Z" fill="white"/>
<path d="M102.999 19.9227H106.78C108.969 19.9227 110.075 21.1388 110.075 23.5933C110.075 25.9371 108.925 27.0869 106.626 27.0869H105.343V32.8139H102.999V19.9227ZM106.25 25.4506C106.891 25.4506 107.311 25.318 107.532 25.0526C107.753 24.7873 107.864 24.3008 107.864 23.5933C107.864 23.0847 107.82 22.6867 107.753 22.4213C107.687 22.156 107.532 21.957 107.289 21.8022C107.068 21.6695 106.714 21.6032 106.228 21.6032H105.321V25.4506H106.25V25.4506Z" fill="white"/>
<path d="M111.424 19.9227H113.768V25.3401H114.343C115.669 25.3401 116.664 25.6275 117.328 26.2024C117.991 26.7773 118.301 27.7281 118.301 29.077C118.301 30.4479 117.969 31.4208 117.284 31.9736C116.598 32.5264 115.581 32.8139 114.232 32.8139H111.424V19.9227ZM114.254 31.2439C114.94 31.2439 115.426 31.0891 115.714 30.7796C116.001 30.47 116.134 29.9172 116.134 29.0991C116.134 28.3694 116.001 27.8387 115.714 27.507C115.448 27.1532 114.94 26.9985 114.21 26.9985H113.768V31.2439H114.254V31.2439Z" fill="white"/>
<path d="M119.76 19.9227H125.177V21.5811H122.104V25.2959H124.514V26.9321H122.104V31.2218H125.2V32.836H119.76V19.9227Z" fill="white"/>
<path d="M126.593 19.9227H130.374C132.563 19.9227 133.668 21.1388 133.668 23.5933C133.668 25.9371 132.519 27.0869 130.219 27.0869H128.936V32.8139H126.593V19.9227ZM129.843 25.4506C130.484 25.4506 130.904 25.318 131.125 25.0526C131.347 24.7873 131.457 24.3008 131.457 23.5933C131.457 23.0847 131.413 22.6867 131.347 22.4213C131.28 22.156 131.125 21.957 130.882 21.8022C130.661 21.6695 130.307 21.6032 129.821 21.6032H128.914V25.4506H129.843V25.4506Z" fill="white"/>
<path d="M39.9366 35.9758V35.1798H134V35.9758H39.9366Z" fill="white"/>
</svg>
