<svg width="32" height="21" viewBox="0 0 32 21" fill="none" xmlns="http://www.w3.org/2000/svg">
<path fill-rule="evenodd" clip-rule="evenodd" d="M10.2833 0.658875C10.3718 0.457367 10.4674 0.239594 10.5714 0C3.3625 2.41266 -0.348921 7.4317 0.0258345 13.8596C0.222124 17.417 2.82723 20.446 6.11043 20.9039C9.96468 21.4498 13.2657 19.6359 14.497 16.3251C15.746 12.9791 14.6575 8.92862 11.3565 7.46692C8.30525 6.12851 8.80489 4.42029 9.62569 2.23657C9.80123 1.75659 10.0075 1.28674 10.2833 0.658875ZM27.2833 0.658875C27.3718 0.457367 27.4674 0.239594 27.5714 0C20.3625 2.41266 16.6511 7.4317 17.0258 13.8596C17.2221 17.417 19.8272 20.446 23.1104 20.9039C26.9647 21.4498 30.2657 19.6359 31.497 16.3251C32.746 12.9791 31.6575 8.92862 28.3565 7.46692C25.3053 6.12851 25.8049 4.42029 26.6257 2.23657C26.8012 1.75659 27.0075 1.28674 27.2833 0.658875Z" fill="black" fill-opacity="0.2"/>
</svg>
