<svg width="17" height="24" viewBox="0 0 17 24" fill="none" xmlns="http://www.w3.org/2000/svg">
<path d="M0 9.33333H1.30769V0H11.1154C14.3846 0 17 2.66667 17 6C17 9.33333 14.3846 12 11.1154 12H3.92308V14.6667H11.7692V17.3333H3.92308V24H1.30769V17.3333H0V14.6667H1.30769V12H0V9.33333ZM11.1154 2.66667H3.92308V9.33333H11.1154C11.9824 9.33333 12.814 8.98214 13.4271 8.35702C14.0402 7.7319 14.3846 6.88406 14.3846 6C14.3846 5.11595 14.0402 4.2681 13.4271 3.64298C12.814 3.01786 11.9824 2.66667 11.1154 2.66667V2.66667Z" fill="white"/>
</svg>
